<svg width="24" height="24" viewBox="0 0 24 24" fill="none" xmlns="http://www.w3.org/2000/svg">
<path d="M19.1496 19.0001H13.3896V16.8701C15.4996 15.2501 16.5896 13.2401 16.5896 10.8401C16.5896 9.3401 16.1596 8.1601 15.3196 7.2901C14.4696 6.4201 13.3696 6.0001 12.0296 6.0001C10.6796 6.0001 9.56961 6.4201 8.70961 7.3001C7.83961 8.1701 7.40961 9.3701 7.40961 10.8801C7.40961 13.2601 8.49961 15.2601 10.6096 16.8701V19.0001H4.84961V16.8701H8.40961C6.03961 15.3201 4.84961 13.2301 4.84961 10.6001C4.84961 8.5001 5.49961 6.8601 6.80961 5.6601C8.11961 4.4501 9.83961 3.8501 11.9696 3.8501C14.1496 3.8501 15.8896 4.4501 17.1896 5.6401C18.4996 6.8301 19.1496 8.5001 19.1496 10.5801C19.1496 13.2101 17.9496 15.3101 15.5496 16.8701H19.1496V19.0001Z" fill="white" fill-opacity="0.6"/>
</svg>
