<svg width="72" height="29" viewBox="0 0 72 29" fill="none" xmlns="http://www.w3.org/2000/svg">
<path d="M56.1469 18.4065C54.8442 22.6868 57.258 27.2127 61.5382 28.5154C65.8185 29.818 70.3444 27.4042 71.6471 23.124C72.9498 18.8437 70.536 14.3179 66.2557 13.0152C61.9754 11.7125 57.4496 14.1263 56.1469 18.4065ZM0.443028 1.45319L0.000767133 2.90634L1.9837 3.50984L2.42596 2.05669L2.86822 0.603551L0.885289 4.8407e-05L0.443028 1.45319ZM6.39183 3.2637L5.94957 4.71684L9.91544 5.92385L10.3577 4.4707L10.8 3.01756L6.8341 1.81055L6.39183 3.2637ZM14.3236 5.67771L13.8813 7.13085L17.8472 8.33785L18.2894 6.88471L18.7317 5.43157L14.7658 4.22456L14.3236 5.67771ZM22.2553 8.09172L21.8131 9.54486L25.7789 10.7519L26.2212 9.29872L26.6635 7.84558L22.6976 6.63857L22.2553 8.09172ZM30.1871 10.5057L29.7448 11.9589L33.7107 13.1659L34.1529 11.7127L34.5952 10.2596L30.6293 9.05258L30.1871 10.5057ZM38.1188 12.9197L37.6765 14.3729L41.6424 15.5799L42.0847 14.1267L42.5269 12.6736L38.5611 11.4666L38.1188 12.9197ZM46.0505 15.3337L45.6083 16.7869L49.5742 17.9939L50.0164 16.5407L50.4587 15.0876L46.4928 13.8806L46.0505 15.3337ZM53.9823 17.7477L53.54 19.2009L57.5059 20.4079L57.9482 18.9548L58.3904 17.5016L54.4245 16.2946L53.9823 17.7477ZM61.914 20.1618L61.4718 21.6149L63.4547 22.2184L63.897 20.7653L64.3392 19.3121L62.3563 18.7086L61.914 20.1618ZM56.1469 18.4065C54.8442 22.6868 57.258 27.2127 61.5382 28.5154C65.8185 29.818 70.3444 27.4042 71.6471 23.124C72.9498 18.8437 70.536 14.3179 66.2557 13.0152C61.9754 11.7125 57.4496 14.1263 56.1469 18.4065ZM0.443028 1.45319L0.000767133 2.90634L1.9837 3.50984L2.42596 2.05669L2.86822 0.603551L0.885289 4.8407e-05L0.443028 1.45319ZM6.39183 3.2637L5.94957 4.71684L9.91544 5.92385L10.3577 4.4707L10.8 3.01756L6.8341 1.81055L6.39183 3.2637ZM14.3236 5.67771L13.8813 7.13085L17.8472 8.33785L18.2894 6.88471L18.7317 5.43157L14.7658 4.22456L14.3236 5.67771ZM22.2553 8.09172L21.8131 9.54486L25.7789 10.7519L26.2212 9.29872L26.6635 7.84558L22.6976 6.63857L22.2553 8.09172ZM30.1871 10.5057L29.7448 11.9589L33.7107 13.1659L34.1529 11.7127L34.5952 10.2596L30.6293 9.05258L30.1871 10.5057ZM38.1188 12.9197L37.6765 14.3729L41.6424 15.5799L42.0847 14.1267L42.5269 12.6736L38.5611 11.4666L38.1188 12.9197ZM46.0505 15.3337L45.6083 16.7869L49.5742 17.9939L50.0164 16.5407L50.4587 15.0876L46.4928 13.8806L46.0505 15.3337ZM53.9823 17.7477L53.54 19.2009L57.5059 20.4079L57.9482 18.9548L58.3904 17.5016L54.4245 16.2946L53.9823 17.7477ZM61.914 20.1618L61.4718 21.6149L63.4547 22.2184L63.897 20.7653L64.3392 19.3121L62.3563 18.7086L61.914 20.1618Z" fill="#FFE394"/>
</svg>
