<svg width="20" height="20" viewBox="0 0 20 20" fill="none" xmlns="http://www.w3.org/2000/svg">
<path d="M3.33398 4.16675V5.83341H5.00065V15.8334H6.66732V5.83341H11.6673V13.3334C11.6673 13.9965 11.9307 14.6323 12.3996 15.1012C12.8684 15.57 13.5043 15.8334 14.1673 15.8334C14.8304 15.8334 15.4662 15.57 15.9351 15.1012C16.4039 14.6323 16.6673 13.9965 16.6673 13.3334H15.0007C15.0007 13.5544 14.9129 13.7664 14.7566 13.9227C14.6003 14.079 14.3883 14.1667 14.1673 14.1667C13.9463 14.1667 13.7343 14.079 13.5781 13.9227C13.4218 13.7664 13.334 13.5544 13.334 13.3334V5.83341H15.0007V4.16675" fill="white" fill-opacity="0.6"/>
</svg>
