<svg width="65" height="45" viewBox="0 0 65 45" fill="none" xmlns="http://www.w3.org/2000/svg">
<path d="M50.0177 12.4574C52.4191 16.2372 57.4299 17.3546 61.2097 14.9532C64.9895 12.5518 66.1069 7.541 63.7055 3.76121C61.3041 -0.0185868 56.2933 -1.136 52.5135 1.2654C48.7337 3.66679 47.6163 8.67764 50.0177 12.4574ZM0.815586 43.7167L1.63086 45L3.3823 43.8872L2.56702 42.604L1.75175 41.3208L0.000315018 42.4335L0.815586 43.7167ZM6.0699 40.3785L6.88517 41.6618L10.388 39.4363L9.57278 38.1531L8.75751 36.8698L5.25463 39.0953L6.0699 40.3785ZM13.0757 35.9276L13.8909 37.2109L17.3938 34.9854L16.5785 33.7022L15.7633 32.4189L12.2604 34.6444L13.0757 35.9276ZM20.0814 31.4767L20.8967 32.7599L24.3996 30.5345L23.5843 29.2512L22.769 27.968L19.2661 30.1935L20.0814 31.4767ZM27.0872 27.0258L27.9024 28.309L31.4053 26.0835L30.59 24.8003L29.7748 23.5171L26.2719 25.7425L27.0872 27.0258ZM34.0929 22.5748L34.9082 23.8581L38.4111 21.6326L37.5958 20.3494L36.7805 19.0661L33.2776 21.2916L34.0929 22.5748ZM41.0987 18.1239L41.9139 19.4071L45.4168 17.1817L44.6015 15.8984L43.7863 14.6152L40.2834 16.8407L41.0987 18.1239ZM48.1044 13.673L48.9197 14.9562L52.4226 12.7307L51.6073 11.4475L50.792 10.1643L47.2892 12.3897L48.1044 13.673ZM55.1102 9.22205L55.9254 10.5053L57.6769 9.39255L56.8616 8.10932L56.0463 6.82608L54.2949 7.93881L55.1102 9.22205ZM50.0177 12.4574C52.4191 16.2372 57.4299 17.3546 61.2097 14.9532C64.9895 12.5518 66.1069 7.541 63.7055 3.76121C61.3041 -0.0185868 56.2933 -1.136 52.5135 1.2654C48.7337 3.66679 47.6163 8.67764 50.0177 12.4574ZM0.815586 43.7167L1.63086 45L3.3823 43.8872L2.56702 42.604L1.75175 41.3208L0.000315018 42.4335L0.815586 43.7167ZM6.0699 40.3785L6.88517 41.6618L10.388 39.4363L9.57278 38.1531L8.75751 36.8698L5.25463 39.0953L6.0699 40.3785ZM13.0757 35.9276L13.8909 37.2109L17.3938 34.9854L16.5785 33.7022L15.7633 32.4189L12.2604 34.6444L13.0757 35.9276ZM20.0814 31.4767L20.8967 32.7599L24.3996 30.5345L23.5843 29.2512L22.769 27.968L19.2661 30.1935L20.0814 31.4767ZM27.0872 27.0258L27.9024 28.309L31.4053 26.0835L30.59 24.8003L29.7748 23.5171L26.2719 25.7425L27.0872 27.0258ZM34.0929 22.5748L34.9082 23.8581L38.4111 21.6326L37.5958 20.3494L36.7805 19.0661L33.2776 21.2916L34.0929 22.5748ZM41.0987 18.1239L41.9139 19.4071L45.4168 17.1817L44.6015 15.8984L43.7863 14.6152L40.2834 16.8407L41.0987 18.1239ZM48.1044 13.673L48.9197 14.9562L52.4226 12.7307L51.6073 11.4475L50.792 10.1643L47.2892 12.3897L48.1044 13.673ZM55.1102 9.22205L55.9254 10.5053L57.6769 9.39255L56.8616 8.10932L56.0463 6.82608L54.2949 7.93881L55.1102 9.22205Z" fill="#A0FF9E"/>
</svg>
