<svg width="68" height="49" viewBox="0 0 68 49" fill="none" xmlns="http://www.w3.org/2000/svg">
<path d="M53.2891 35.9308C50.8465 39.626 51.8619 44.6016 55.5571 47.0441C59.2522 49.4867 64.2278 48.4713 66.6704 44.7761C69.113 41.081 68.0975 36.1054 64.4024 33.6628C60.7072 31.2202 55.7316 32.2357 53.2891 35.9308ZM0.830223 1.25464L0.000977932 2.50914L1.64402 3.59521L2.47327 2.34071L3.30251 1.08621L1.65947 0.000136362L0.830223 1.25464ZM5.75935 4.51287L4.9301 5.76737L8.21619 7.93953L9.04543 6.68503L9.87468 5.43053L6.58859 3.25837L5.75935 4.51287ZM12.3315 8.85719L11.5023 10.1117L14.7884 12.2838L15.6176 11.0293L16.4468 9.77484L13.1608 7.60269L12.3315 8.85719ZM18.9037 13.2015L18.0744 14.456L21.3605 16.6282L22.1898 15.3737L23.019 14.1192L19.7329 11.947L18.9037 13.2015ZM25.4759 17.5458L24.6466 18.8003L27.9327 20.9725L28.7619 19.718L29.5912 18.4635L26.3051 16.2913L25.4759 17.5458ZM32.048 21.8901L31.2188 23.1446L34.5049 25.3168L35.3341 24.0623L36.1633 22.8078L32.8773 20.6356L32.048 21.8901ZM38.6202 26.2344L37.7909 27.4889L41.077 29.6611L41.9063 28.4066L42.7355 27.1521L39.4494 24.9799L38.6202 26.2344ZM45.1924 30.5788L44.3631 31.8333L47.6492 34.0054L48.4784 32.7509L49.3077 31.4964L46.0216 29.3243L45.1924 30.5788ZM51.7645 34.9231L50.9353 36.1776L54.2214 38.3497L55.0506 37.0952L55.8799 35.8407L52.5938 33.6686L51.7645 34.9231ZM58.3367 39.2674L57.5074 40.5219L59.1505 41.608L59.9797 40.3535L60.809 39.099L59.1659 38.0129L58.3367 39.2674ZM53.2891 35.9308C50.8465 39.626 51.8619 44.6016 55.5571 47.0441C59.2522 49.4867 64.2278 48.4713 66.6704 44.7761C69.113 41.081 68.0975 36.1054 64.4024 33.6628C60.7072 31.2202 55.7316 32.2357 53.2891 35.9308ZM0.830223 1.25464L0.000977932 2.50914L1.64402 3.59521L2.47327 2.34071L3.30251 1.08621L1.65947 0.000136362L0.830223 1.25464ZM5.75935 4.51287L4.9301 5.76737L8.21619 7.93953L9.04543 6.68503L9.87468 5.43053L6.58859 3.25837L5.75935 4.51287ZM12.3315 8.85719L11.5023 10.1117L14.7884 12.2838L15.6176 11.0293L16.4468 9.77484L13.1608 7.60269L12.3315 8.85719ZM18.9037 13.2015L18.0744 14.456L21.3605 16.6282L22.1898 15.3737L23.019 14.1192L19.7329 11.947L18.9037 13.2015ZM25.4759 17.5458L24.6466 18.8003L27.9327 20.9725L28.7619 19.718L29.5912 18.4635L26.3051 16.2913L25.4759 17.5458ZM32.048 21.8901L31.2188 23.1446L34.5049 25.3168L35.3341 24.0623L36.1633 22.8078L32.8773 20.6356L32.048 21.8901ZM38.6202 26.2344L37.7909 27.4889L41.077 29.6611L41.9063 28.4066L42.7355 27.1521L39.4494 24.9799L38.6202 26.2344ZM45.1924 30.5788L44.3631 31.8333L47.6492 34.0054L48.4784 32.7509L49.3077 31.4964L46.0216 29.3243L45.1924 30.5788ZM51.7645 34.9231L50.9353 36.1776L54.2214 38.3497L55.0506 37.0952L55.8799 35.8407L52.5938 33.6686L51.7645 34.9231ZM58.3367 39.2674L57.5074 40.5219L59.1505 41.608L59.9797 40.3535L60.809 39.099L59.1659 38.0129L58.3367 39.2674Z" fill="#BFEFFF"/>
</svg>
