<svg width="24" height="24" viewBox="0 0 24 24" fill="none" xmlns="http://www.w3.org/2000/svg">
<path d="M18.0799 17.8001C17.6199 17.9301 17.2099 18.0001 16.8499 18.0001C15.6499 18.0001 14.8399 17.1201 14.4299 15.3501H14.3799C13.3899 17.2601 11.9999 18.2101 10.2499 18.2101C8.93992 18.2101 7.88992 17.7201 7.09992 16.7301C6.30992 15.7401 5.91992 14.5001 5.91992 13.0001C5.91992 11.2501 6.36992 9.85012 7.25992 8.76012C8.14992 7.67012 9.35992 7.12012 10.8899 7.12012C11.7099 7.12012 12.4499 7.35012 13.0899 7.80012C13.7299 8.26012 14.2199 8.90012 14.5599 9.73012H14.5999L15.3099 7.33012H17.8699L15.7299 12.6501C15.9699 13.8901 16.2199 14.7401 16.4999 15.1901C16.7399 15.6401 17.0799 15.8701 17.4999 15.8701C17.7399 15.8701 17.9299 15.8301 18.0999 15.7601L18.0799 17.8001ZM13.8199 12.5601C13.6099 11.4301 13.2699 10.5501 12.8099 9.95012C12.3599 9.34012 11.8099 9.04012 11.1799 9.04012C10.3599 9.04012 9.69992 9.41012 9.20992 10.1401C8.71992 10.8801 8.49992 11.7901 8.49992 12.8601C8.49992 13.8401 8.68992 14.6501 9.11992 15.3101C9.53992 15.9701 10.1099 16.2901 10.8199 16.2901C11.4199 16.2901 11.9699 16.0001 12.4599 15.4501C12.9599 14.8801 13.3699 14.0501 13.6999 12.9601L13.8199 12.5601Z" fill="white" fill-opacity="0.6"/>
</svg>
