<svg width="65" height="23" viewBox="0 0 65 23" fill="none" xmlns="http://www.w3.org/2000/svg">
<path d="M49.0437 9.91111C50.053 14.259 54.3959 16.9654 58.7437 15.9561C63.0916 14.9467 65.798 10.6039 64.7887 6.25602C63.7794 1.90816 59.4365 -0.798256 55.0886 0.211069C50.7408 1.22039 48.0344 5.56325 49.0437 9.91111ZM0.34332 21.2166L0.685985 22.6926L2.70644 22.2236L2.36378 20.7475L2.02112 19.2714L0.000655848 19.7405L0.34332 21.2166ZM6.4047 19.8094L6.74736 21.2855L10.7883 20.3475L10.4456 18.8714L10.103 17.3953L6.06203 18.3334L6.4047 19.8094ZM14.4865 17.9333L14.8292 19.4094L18.8701 18.4713L18.5275 16.9952L18.1848 15.5191L14.1439 16.4572L14.4865 17.9333ZM22.5684 16.0572L22.911 17.5333L26.952 16.5952L26.6093 15.1191L26.2666 13.643L22.2257 14.5811L22.5684 16.0572ZM30.6502 14.181L30.9929 15.6571L35.0338 14.719L34.6911 13.243L34.3485 11.7669L30.3076 12.7049L30.6502 14.181ZM38.7321 12.3049L39.0747 13.781L43.1156 12.8429L42.773 11.3668L42.4303 9.89072L38.3894 10.8288L38.7321 12.3049ZM46.8139 10.4287L47.1566 11.9048L51.1975 10.9668L50.8548 9.49067L50.5121 8.01458L46.4712 8.95265L46.8139 10.4287ZM54.8957 8.5526L55.2384 10.0287L57.2589 9.55966L56.9162 8.08356L56.5735 6.60747L54.5531 7.07651L54.8957 8.5526ZM49.0437 9.91111C50.053 14.259 54.3959 16.9654 58.7437 15.9561C63.0916 14.9467 65.798 10.6039 64.7887 6.25602C63.7794 1.90816 59.4365 -0.798256 55.0886 0.211069C50.7408 1.22039 48.0344 5.56325 49.0437 9.91111ZM0.34332 21.2166L0.685985 22.6926L2.70644 22.2236L2.36378 20.7475L2.02112 19.2714L0.000655848 19.7405L0.34332 21.2166ZM6.4047 19.8094L6.74736 21.2855L10.7883 20.3475L10.4456 18.8714L10.103 17.3953L6.06203 18.3334L6.4047 19.8094ZM14.4865 17.9333L14.8292 19.4094L18.8701 18.4713L18.5275 16.9952L18.1848 15.5191L14.1439 16.4572L14.4865 17.9333ZM22.5684 16.0572L22.911 17.5333L26.952 16.5952L26.6093 15.1191L26.2666 13.643L22.2257 14.5811L22.5684 16.0572ZM30.6502 14.181L30.9929 15.6571L35.0338 14.719L34.6911 13.243L34.3485 11.7669L30.3076 12.7049L30.6502 14.181ZM38.7321 12.3049L39.0747 13.781L43.1156 12.8429L42.773 11.3668L42.4303 9.89072L38.3894 10.8288L38.7321 12.3049ZM46.8139 10.4287L47.1566 11.9048L51.1975 10.9668L50.8548 9.49067L50.5121 8.01458L46.4712 8.95265L46.8139 10.4287ZM54.8957 8.5526L55.2384 10.0287L57.2589 9.55966L56.9162 8.08356L56.5735 6.60747L54.5531 7.07651L54.8957 8.5526Z" fill="#FFC5C5"/>
</svg>
