<svg width="24" height="24" viewBox="0 0 24 24" fill="none" xmlns="http://www.w3.org/2000/svg">
<path d="M5 11H19V13H5V11ZM12.002 4C11.4716 3.99947 10.9626 4.20968 10.5872 4.58437C10.2118 4.95907 10.0005 5.46757 10 5.998C9.99947 6.52843 10.2097 7.03735 10.5844 7.4128C10.9591 7.78825 11.4676 7.99947 11.998 8C12.5284 8.00053 13.0374 7.79033 13.4128 7.41563C13.7882 7.04093 13.9995 6.53243 14 6.002C14.0005 5.47157 13.7903 4.96265 13.4156 4.5872C13.0409 4.21175 12.5324 4.00053 12.002 4ZM12.002 16C11.4716 15.9995 10.9626 16.2097 10.5872 16.5844C10.2118 16.9591 10.0005 17.4676 10 17.998C9.99947 18.5284 10.2097 19.0374 10.5844 19.4128C10.9591 19.7882 11.4676 19.9995 11.998 20C12.5284 20.0005 13.0374 19.7903 13.4128 19.4156C13.7882 19.0409 13.9995 18.5324 14 18.002C14.0005 17.4716 13.7903 16.9626 13.4156 16.5872C13.0409 16.2118 12.5324 16.0005 12.002 16Z" fill="white" fill-opacity="0.6"/>
</svg>
