<svg width="17" height="17" viewBox="0 0 17 17" fill="none" xmlns="http://www.w3.org/2000/svg">
<path fill-rule="evenodd" clip-rule="evenodd" d="M8.31706 16.5306C9.34027 16.5306 10.3535 16.3291 11.2988 15.9375C12.2441 15.5459 13.1031 14.972 13.8266 14.2485C14.5501 13.5249 15.1241 12.666 15.5156 11.7207C15.9072 10.7753 16.1087 9.76215 16.1087 8.73893C16.1087 7.71572 15.9072 6.70252 15.5156 5.75719C15.1241 4.81186 14.5501 3.95291 13.8266 3.22939C13.1031 2.50587 12.2441 1.93194 11.2988 1.54037C10.3535 1.1488 9.34027 0.947266 8.31706 0.947266C6.25058 0.947266 4.26874 1.76817 2.80752 3.22939C1.3463 4.69061 0.525391 6.67245 0.525391 8.73893C0.525391 10.8054 1.3463 12.7873 2.80752 14.2485C4.26874 15.7097 6.25058 16.5306 8.31706 16.5306ZM8.1162 11.8902L12.4449 6.69578L11.1151 5.58764L7.39245 10.054L5.46617 8.12685L4.24202 9.35101L6.83924 11.9482L7.50932 12.6183L8.1162 11.8902Z" fill="#4255FF"/>
</svg>
