<svg width="17" height="17" viewBox="0 0 17 17" fill="none" xmlns="http://www.w3.org/2000/svg">
<path fill-rule="evenodd" clip-rule="evenodd" d="M1.02781 0.125C0.788371 0.125 0.558737 0.220117 0.389427 0.389427C0.220117 0.558737 0.125 0.788371 0.125 1.02781C0.125 1.26725 0.220117 1.49689 0.389427 1.6662C0.558737 1.83551 0.788371 1.93062 1.02781 1.93062H11.2597C11.4991 1.93062 11.7287 1.83551 11.8981 1.6662C12.0674 1.49689 12.1625 1.26725 12.1625 1.02781C12.1625 0.788371 12.0674 0.558737 11.8981 0.389427C11.7287 0.220117 11.4991 0.125 11.2597 0.125H1.02781ZM0.125 4.63906C0.125 4.39962 0.220117 4.16998 0.389427 4.00067C0.558737 3.83136 0.788371 3.73625 1.02781 3.73625H7.34749C7.58693 3.73625 7.81657 3.83136 7.98588 4.00067C8.15519 4.16998 8.2503 4.39962 8.2503 4.63906C8.2503 4.8785 8.15519 5.10813 7.98588 5.27744C7.81657 5.44675 7.58693 5.54187 7.34749 5.54187H1.02781C0.788371 5.54187 0.558737 5.44675 0.389427 5.27744C0.220117 5.10813 0.125 4.8785 0.125 4.63906ZM10.9587 13.9681C11.7569 13.9681 12.5223 13.6511 13.0867 13.0867C13.6511 12.5223 13.9681 11.7569 13.9681 10.9587C13.9681 10.1606 13.6511 9.39516 13.0867 8.83079C12.5223 8.26642 11.7569 7.94937 10.9587 7.94937C10.1606 7.94937 9.39516 8.26642 8.83079 8.83079C8.26642 9.39516 7.94937 10.1606 7.94937 10.9587C7.94937 11.7569 8.26642 12.5223 8.83079 13.0867C9.39516 13.6511 10.1606 13.9681 10.9587 13.9681ZM10.9587 15.7737C11.9627 15.7737 12.8932 15.4668 13.6648 14.9419L15.4367 16.7127C15.5193 16.8014 15.619 16.8725 15.7297 16.9218C15.8405 16.9712 15.96 16.9977 16.0813 16.9999C16.2025 17.002 16.3229 16.9797 16.4353 16.9343C16.5477 16.8889 16.6498 16.8213 16.7356 16.7356C16.8213 16.6498 16.8889 16.5477 16.9343 16.4353C16.9797 16.3229 17.002 16.2025 16.9999 16.0813C16.9977 15.96 16.9712 15.8405 16.9218 15.7297C16.8725 15.619 16.8014 15.5193 16.7127 15.4367L14.9419 13.6648C15.5461 12.7756 15.8353 11.7098 15.7635 10.6372C15.6917 9.56456 15.2631 8.54682 14.5458 7.74609C13.8285 6.94535 12.8639 6.40767 11.8056 6.21871C10.7474 6.02975 9.65629 6.20037 8.70623 6.7034C7.75616 7.20642 7.00176 8.01292 6.5632 8.9944C6.12463 9.97589 6.02713 11.0759 6.28623 12.1192C6.54533 13.1626 7.14612 14.0892 7.99289 14.7515C8.83967 15.4137 9.88372 15.7736 10.9587 15.7737ZM1.02781 7.34749C0.788371 7.34749 0.558737 7.44261 0.389427 7.61192C0.220117 7.78123 0.125 8.01086 0.125 8.2503C0.125 8.48974 0.220117 8.71938 0.389427 8.88869C0.558737 9.058 0.788371 9.15311 1.02781 9.15311H3.73625C3.97569 9.15311 4.20532 9.058 4.37463 8.88869C4.54394 8.71938 4.63906 8.48974 4.63906 8.2503C4.63906 8.01086 4.54394 7.78123 4.37463 7.61192C4.20532 7.44261 3.97569 7.34749 3.73625 7.34749H1.02781Z" fill="#4255FF"/>
</svg>
