<svg width="44" height="40" viewBox="0 0 44 40" fill="none" xmlns="http://www.w3.org/2000/svg">
<path d="M17.6904 21.2677C17.6527 21.2717 17.6151 21.2758 17.5314 21.2545C17.4384 21.1989 17.3951 21.149 17.3442 21.1414C16.4186 21.004 15.6132 20.6211 14.8473 20.1506C14.6577 20.0342 14.4475 19.9455 14.2468 19.844C14.2468 19.844 14.2534 19.8421 14.2513 19.8169C14.1942 19.716 14.1519 19.6283 14.0821 19.5662C13.0783 18.6729 12.3511 17.6246 11.9226 16.4067C11.9098 16.3704 11.8779 16.3397 11.8567 16.3091C11.748 16.3454 11.6443 16.38 11.5246 16.4199C11.4973 16.9731 11.4701 17.5267 11.441 18.1161C11.4104 18.535 11.3812 18.9179 11.353 19.3009C11.2965 20.0665 11.2294 20.8317 11.191 21.5981C11.1788 21.8395 11.2443 22.0842 11.2742 22.3274C11.2631 23.511 11.3087 24.6934 11.0229 25.8669C10.9144 26.3123 11.0785 26.8104 10.9848 27.2615C10.7944 28.1781 10.5155 29.0799 9.76829 29.8335C9.68425 29.909 9.6595 29.9698 9.63474 30.0307C9.63474 30.0307 9.62878 30.0311 9.59618 30.0246C9.51406 30.0928 9.46454 30.1675 9.41502 30.2421C9.41502 30.2421 9.41511 30.2388 9.38468 30.2378C9.24335 30.2933 9.11293 30.3314 9.02451 30.4091C7.70515 31.5679 5.51674 31.7607 3.93488 30.9005C3.83896 30.8484 3.72138 30.8291 3.59862 30.7719C3.15797 30.4405 2.7326 30.1316 2.3036 29.807C2.29997 29.7912 2.29215 29.7597 2.28218 29.7422C2.2546 29.7026 2.23172 29.687 2.20294 29.6781C2.2023 29.6784 2.20455 29.6766 2.20002 29.6482C1.83342 29.0049 1.4691 28.391 1.11059 27.7743C1.00037 27.5847 0.90603 27.3875 0.803663 27.1644C0.800848 27.0762 0.798788 27.0173 0.796051 26.9303C0.739218 26.8347 0.683061 26.7672 0.626905 26.6996C0.615774 26.6747 0.611684 26.6488 0.649215 26.5902C0.715787 26.4636 0.777428 26.3681 0.774258 26.2744C0.764422 25.9836 0.70861 25.6935 0.708269 25.4031C0.703303 21.1786 0.705345 16.9541 0.701022 12.7296C0.70085 12.5618 0.654124 12.3939 0.628794 12.201C0.62762 12.1425 0.626742 12.109 0.627421 12.0445C0.683418 11.7565 0.747555 11.5007 0.790508 11.242C0.928243 10.4125 1.18571 9.62279 1.67672 8.90341C1.95018 8.50276 2.2084 8.09352 2.50139 7.68075C2.71517 7.49021 2.90106 7.30706 3.0971 7.10809C3.12392 7.07261 3.14453 7.05735 3.20012 7.04201C3.41512 6.87641 3.59908 6.71531 3.78305 6.5542C3.78305 6.5542 3.78415 6.55939 3.81467 6.55953C3.95435 6.52631 4.07833 6.51295 4.17041 6.45655C5.23914 5.802 6.43409 5.57731 7.69829 5.60048C8.60039 5.61702 9.50204 5.6538 10.4039 5.68155C10.4039 5.68155 10.4362 5.68205 10.4753 5.7082C10.8362 5.80246 11.1567 5.87658 11.4802 5.93745C12.1725 6.06772 12.8664 6.19114 13.5597 6.31736C13.5597 6.31736 13.5535 6.31872 13.5666 6.34211C14.0719 6.50915 14.5641 6.6528 15.0564 6.79644C15.0564 6.79644 15.0501 6.79803 15.0635 6.82259C15.2458 6.88361 15.4146 6.92007 15.5834 6.95653C15.5834 6.95653 15.5772 6.95853 15.5813 6.98392C15.9958 7.17843 16.4063 7.34755 16.8167 7.51667C16.8167 7.51667 16.8104 7.51814 16.8152 7.54345C17.2034 7.7403 17.5868 7.91185 17.9702 8.0834C17.9964 8.08448 18.0161 8.09528 18.0369 8.16113C18.2209 8.29736 18.3973 8.38828 18.5737 8.4792C18.5737 8.4792 18.5683 8.47998 18.5711 8.50565C18.838 8.70012 19.1021 8.86894 19.3663 9.03775C19.3663 9.03775 19.3608 9.0394 19.3629 9.06497C19.5258 9.25974 19.6748 9.43978 19.8493 9.59638C20.8909 10.5314 21.6525 11.6085 21.9361 12.9349C21.9441 12.9724 22.007 13.0003 22.0945 13.0762C22.1233 13.016 22.1426 12.9798 22.1581 12.9424C22.189 12.8677 22.2253 12.794 22.2467 12.717C22.6892 11.1276 23.7464 9.92273 25.1341 8.93294C26.6052 7.88362 28.2498 7.1342 30.0185 6.58463C31.9817 5.97462 33.9849 5.59802 36.0632 5.60158C36.7779 5.6028 37.4925 5.65366 38.2072 5.68185C38.2072 5.68185 38.2402 5.68302 38.2742 5.71112C38.9065 6.00904 39.5066 6.27573 40.1024 6.55006C40.3812 6.67843 40.6518 6.82155 40.9261 6.95799C40.9261 6.95799 40.9208 6.9597 40.9293 6.97692C40.9634 7.00932 40.989 7.0245 41.0145 7.03967C41.0145 7.03967 41.0085 7.03998 41.0171 7.05705C41.0511 7.08953 41.0764 7.10494 41.1018 7.12035C41.1018 7.12035 41.0962 7.12024 41.0996 7.14435C41.1617 7.20522 41.2203 7.24197 41.279 7.27872C41.279 7.27872 41.2729 7.27971 41.2821 7.29645C41.3166 7.32869 41.3421 7.34419 41.3676 7.3597C41.3676 7.3597 41.3608 7.35976 41.3699 7.37628C41.4044 7.40849 41.4297 7.42418 41.455 7.43987C41.455 7.43987 41.449 7.43967 41.4485 7.46639C41.6062 7.65369 41.7646 7.81428 41.923 7.97487C41.923 7.97487 41.9239 7.96887 41.9158 7.99754C41.9908 8.09724 42.074 8.16828 42.1571 8.23932C42.1571 8.23932 42.1524 8.24023 42.1516 8.26843C42.1716 8.35927 42.1783 8.42978 42.2149 8.4834C43.0977 9.7751 43.3986 11.1913 43.392 12.6966C43.373 17.0222 43.3845 21.348 43.3897 25.6737C43.3899 25.838 43.448 26.0023 43.4792 26.1666C43.3354 26.8128 43.1917 27.459 43.0034 28.1364C42.6537 28.5622 42.3368 28.9501 42.0454 29.3531C41.2801 30.4116 40.2234 31.1087 38.8566 31.3198C37.2586 31.5666 35.8172 31.1788 34.7243 30.0657C33.7194 29.0422 33.2655 27.7822 33.179 26.418C33.1323 25.6813 33.1157 24.9431 33.0773 24.2059C33.0265 23.2292 32.9744 22.2524 32.9073 21.2765C32.8905 21.0319 32.8141 20.7906 32.7613 20.5124C32.7557 20.2132 32.754 19.9493 32.7634 19.6758C32.7669 19.6425 32.7593 19.619 32.7499 19.5696C32.7444 19.5096 32.7406 19.4753 32.7582 19.4198C32.7311 18.2721 32.6826 17.1457 32.634 16.0192C32.5827 16.0103 32.5313 16.0015 32.4799 15.9926C32.4163 16.0977 32.3445 16.1995 32.2905 16.3085C32.0053 16.8842 31.7717 17.4858 31.4322 18.0334C30.7667 19.1066 29.7951 19.9151 28.6342 20.5504C27.7164 21.0528 26.7076 21.2803 25.6701 21.2557C24.4502 21.2267 23.3455 20.7993 22.4047 20.0766C22.1638 19.8915 22.0006 19.8995 21.7651 20.0837C20.9362 20.732 19.9664 21.1006 18.8783 21.1997C18.4838 21.2356 18.0864 21.2457 17.6904 21.2677ZM3.01073 12.3537C3.03543 12.3699 3.06013 12.3862 3.07905 12.4015C3.07905 12.4015 3.07777 12.3962 3.09948 12.4351C3.12555 12.4513 3.15162 12.4675 3.21724 12.4922C3.24176 12.5068 3.25533 12.5273 3.30983 12.601C3.83096 12.6141 4.35216 12.6385 4.8732 12.6361C5.17189 12.6347 5.29686 12.7367 5.287 13.01C5.27461 13.3533 5.26002 13.6998 5.29943 14.0398C5.31716 14.1928 5.46343 14.3335 5.54492 14.4799C5.54492 14.4799 5.54542 14.474 5.54449 14.5353C5.58776 14.5986 5.62611 14.7135 5.67506 14.7174C6.22595 14.7609 6.77833 14.7995 7.33071 14.8047C7.41019 14.8055 7.49176 14.6234 7.57825 14.502C7.58914 14.4865 7.60466 14.4798 7.69747 14.4739C7.77093 14.3284 7.89458 14.1865 7.90782 14.0366C7.93937 13.6795 7.93065 13.3182 7.9151 12.9594C7.90446 12.7138 8.01022 12.6324 8.27421 12.6382C8.77152 12.6491 9.26946 12.6361 9.8315 12.6346C10.3227 12.4213 10.5334 12.0531 10.4498 11.5762C10.4275 11.4492 10.4143 11.3143 10.4362 11.1887C10.5245 10.6813 10.1275 10.2472 9.5517 10.2425C9.11233 10.239 8.67278 10.2361 8.23354 10.2438C8.01474 10.2477 7.91926 10.1794 7.91328 9.9685C7.90088 9.53153 7.86261 9.09516 7.83443 8.65857C7.81119 8.29833 7.55187 8.01046 7.21584 8.00184C6.79145 7.99094 6.36531 7.98418 5.94204 8.00744C5.63144 8.02451 5.36423 8.13178 5.36288 8.51717C5.36288 8.51717 5.35391 8.54915 5.28785 8.57209C5.25648 8.69377 5.20132 8.81493 5.19802 8.93724C5.1863 9.37102 5.19229 9.8052 5.10922 10.2404C4.62013 10.2412 4.12946 10.222 3.64282 10.2538C3.48012 10.2644 3.32772 10.4053 3.16844 10.4811C3.16844 10.4811 3.1748 10.4804 3.10639 10.4808C2.98498 10.6251 2.78258 10.759 2.75862 10.9156C2.70471 11.2678 2.73259 11.6314 2.74437 11.9898C2.74632 12.0494 2.83504 12.1065 2.89852 12.1961C2.89852 12.1961 2.90032 12.2302 2.92086 12.2701C2.94613 12.2876 2.9714 12.305 2.99095 12.3214C2.99095 12.3214 2.98983 12.3162 3.01073 12.3537ZM34.6723 12.0003C34.6723 12.0003 34.6719 11.9946 34.6934 12.0354C34.7215 12.0506 34.7497 12.0657 34.8102 12.0823C34.8102 12.0823 34.8396 12.0947 34.8595 12.1481C35.0065 12.1566 35.1536 12.165 35.3799 12.1731C35.6982 12.1719 36.0166 12.1707 36.3574 12.1925C36.3855 12.1847 36.4137 12.1769 36.5093 12.1686C36.577 12.1678 36.6447 12.1671 36.7473 12.1737C36.7699 12.1866 36.7801 12.2052 36.7724 12.2861C36.7502 12.7256 36.7224 13.165 36.7129 13.6048C36.7117 13.6601 36.807 13.7172 36.8703 13.7944C36.8703 13.7944 36.87 13.8183 36.8657 13.8843C36.9455 14.0124 36.9926 14.1877 37.1132 14.2568C37.2722 14.3479 37.4865 14.3778 37.6813 14.3954C38.6249 14.4805 38.9962 14.0389 38.9034 13.3173C38.8748 13.0948 38.9076 12.8664 38.8978 12.6412C38.889 12.4408 38.9356 12.3143 39.1996 12.3066C39.7153 12.2915 40.2303 12.2553 40.8069 12.2252C41.2538 11.9619 41.4514 11.1281 41.2012 10.6209C41.0459 10.3062 40.7953 10.1547 40.4169 10.1607C40.0513 10.1665 39.6845 10.1455 39.3201 10.1659C39.0016 10.1836 38.8656 10.0956 38.8877 9.78755C38.9134 9.42999 38.8992 9.0697 38.8931 8.71072C38.884 8.17268 38.6883 7.99963 38.1089 8.00082C37.8895 8.00126 37.6671 8.01847 37.4514 7.99237C37.0697 7.94618 36.8369 8.08903 36.7022 8.47256C36.7036 8.60706 36.705 8.74156 36.7047 8.93243C36.7061 8.97 36.7074 9.00757 36.7014 9.11629C36.704 9.3557 36.7065 9.59511 36.7059 9.89042C36.7066 9.92772 36.7073 9.96502 36.7024 10.0403C36.7024 10.0403 36.7046 10.0785 36.7003 10.1193C36.6992 10.1329 36.6981 10.1466 36.6144 10.16C36.139 10.1605 35.6619 10.139 35.189 10.1703C34.9289 10.1876 34.5686 10.1625 34.5847 10.5609C34.5847 10.5609 34.5916 10.5626 34.5245 10.5706C34.2063 10.913 34.2418 11.6455 34.5841 11.9202C34.5841 11.9202 34.5838 11.915 34.6027 11.9537C34.628 11.9693 34.6533 11.9848 34.6723 12.0003ZM24.3013 15.2415C24.3188 15.2627 24.3414 15.2771 24.3961 15.3293C24.6303 15.3514 24.8641 15.3817 25.099 15.3938C25.5304 15.4161 25.9624 15.4278 26.3981 15.5183C26.3991 15.9964 26.3944 16.4745 26.4036 16.9525C26.4086 17.2076 26.4765 17.4348 26.8689 17.4999C27.4244 17.7267 27.9464 17.4537 27.9788 16.9035C28 16.5452 28.0008 16.1842 27.9784 15.8262C27.9603 15.5363 28.0562 15.4134 28.395 15.4325C28.8033 15.4555 29.2145 15.4454 29.6241 15.436C30.1126 15.4248 30.3594 15.1624 30.3602 14.6746C30.3608 14.2713 30.0917 14.0176 29.6281 14.0033C29.2918 13.993 28.9549 14.0012 28.6183 14.0012C27.9816 14.0014 28.0023 14.0006 27.9751 13.4321C27.9572 13.0594 27.8691 12.6894 27.8091 12.2584C27.7431 11.9284 27.4729 11.8512 27.1631 11.8434C26.9235 11.8373 26.6803 11.8517 26.5867 12.1674C26.5262 12.3058 26.4222 12.442 26.4136 12.5831C26.3914 12.947 26.4113 13.313 26.4043 13.7429C26.2707 13.829 26.1427 13.9791 26.0024 13.9893C25.5544 14.0217 25.1018 13.9982 24.6511 14.0039C24.3195 14.0081 24.0793 14.1123 24.043 14.487C23.8472 14.7487 23.9249 14.9566 24.215 15.161C24.2321 15.1826 24.2543 15.1982 24.3013 15.2415ZM16.1926 17.3602C16.1926 17.3602 16.193 17.3537 16.2022 17.4102C16.3757 17.4448 16.5492 17.4793 16.7206 17.5202C16.7206 17.5202 16.7135 17.5188 16.7818 17.5213C16.9081 17.4392 17.0344 17.3571 17.1606 17.2802C17.1606 17.2802 17.1548 17.2804 17.2208 17.2714C17.4278 16.9902 17.4737 15.7431 17.2864 15.4882C17.0445 15.1591 16.4295 15.1356 16.1928 15.4403C16.1928 15.4403 16.1994 15.4412 16.1384 15.4456C16.0965 15.5019 16.0546 15.5583 16.0107 15.6487C16.0107 15.6487 15.9939 15.6792 15.9422 15.7189C15.919 16.1723 15.8857 16.6258 15.8836 17.0793C15.8833 17.1458 16.0317 17.2129 16.1042 17.2799C16.1042 17.2799 16.1038 17.2736 16.1242 17.312C16.1494 17.3282 16.1746 17.3444 16.1926 17.3602ZM40.2693 25.6198C40.1631 25.587 40.0571 25.5261 39.9507 25.5256C38.6825 25.5193 37.4142 25.5121 36.1464 25.5325C35.9429 25.5358 35.7421 25.6736 35.4738 25.7548C35.0408 25.8645 35.0851 26.1911 35.125 26.4713C35.1666 26.7633 35.3614 26.9951 35.7136 27.0346C36.0687 27.0744 36.428 27.0989 36.7858 27.1015C37.8997 27.1096 39.0137 27.1059 40.1277 27.101C40.2271 27.1006 40.33 27.0676 40.425 27.0348C40.8321 26.8942 40.965 26.5972 40.915 26.2358C40.8761 25.9554 40.7881 25.6767 40.3396 25.6827C40.3396 25.6827 40.3096 25.6711 40.2693 25.6198ZM17.6877 14.7696C17.7997 14.8704 17.9049 15.0499 18.025 15.0585C18.5881 15.0989 19.1582 15.1274 19.7202 15.0899C20.0863 15.0655 20.2882 14.746 20.2648 14.458C20.2455 14.2204 20.0383 13.8212 19.8666 13.799C19.2311 13.7167 18.5687 13.7075 17.9305 13.7771C17.5273 13.8211 17.4087 14.3639 17.6875 14.6755C17.6875 14.6755 17.6881 14.7051 17.6877 14.7696ZM35.9507 29.1034C36.8378 29.1112 37.7249 29.1243 38.612 29.1235C38.8838 29.1233 39.1556 29.0851 39.5057 29.0526C39.6812 29.0513 39.8569 29.0538 40.0322 29.0478C40.423 29.0344 40.745 28.7778 40.7428 28.4864C40.7406 28.1865 40.354 27.835 40.0074 27.8342C38.6763 27.8309 37.3452 27.8296 36.0142 27.8355C35.6541 27.8371 35.4137 27.9964 35.3748 28.341C35.3247 28.786 35.4511 28.9539 35.9507 29.1034ZM39.3309 19.3137C38.5654 18.9725 37.8396 18.7742 36.9681 19.1755C35.92 19.6582 35.2671 20.8062 35.5852 21.8362C35.8831 22.8007 37.3021 23.9154 38.6613 23.3619C39.4342 23.0472 40.0825 22.6159 40.3051 21.8239C40.5863 20.8232 40.2598 20.0003 39.3309 19.3137ZM16.0175 12.2934C16.0173 12.5186 16.0179 12.7439 16.0168 12.9692C16.0155 13.2714 16.2843 13.6033 16.5277 13.5984C16.8994 13.5909 17.2969 13.2829 17.2944 12.9841C17.2918 12.6569 17.313 12.3194 17.2302 12.0068C17.1787 11.8121 16.9848 11.6132 16.7948 11.498C16.6876 11.433 16.4411 11.5003 16.2884 11.5669C15.9908 11.6967 15.9982 11.9628 16.0175 12.2934ZM13.0231 14.4301C13.0358 14.74 13.1822 15.0037 13.5262 15.0383C14.0705 15.0929 14.6335 15.1389 15.1689 15.0675C15.4882 15.0249 15.801 14.7689 15.7254 14.3651C15.6285 13.8473 15.4306 13.6845 14.8955 13.6815C14.5443 13.6796 14.193 13.6793 13.8418 13.6831C13.2931 13.6891 13.095 13.8554 13.0231 14.4301Z" fill="#1588E9"/>
<path d="M16.2865 26.3127C16.4057 26.4118 16.5363 26.5018 16.6422 26.6116C17.619 27.6248 18.7771 28.3927 20.2032 28.8005C20.9446 29.0125 21.6883 29.0223 22.4709 28.9978C23.5363 28.9646 24.4851 28.6604 25.3608 28.2152C26.4682 27.6522 27.4197 26.8793 28.0628 25.8515C28.3737 25.3546 28.656 24.8429 28.9485 24.3365C29.2649 23.7889 30.0027 23.6871 30.6099 24.0054C31.1608 24.2942 31.2972 24.7493 31.0581 25.3746C30.4193 27.0454 29.2437 28.3773 27.7345 29.4407C26.7275 30.1502 25.5995 30.7189 24.291 30.8843C23.4949 30.9848 22.6988 31.1909 21.9051 31.1817C19.8052 31.1574 17.9181 30.5179 16.2746 29.3153C14.8515 28.2738 13.746 27.0117 13.1198 25.4397C12.8607 24.7892 12.9943 24.162 13.5957 23.9403C14.3373 23.6669 15.1117 24.0084 15.4047 24.6601C15.6515 25.209 15.9856 25.7254 16.2525 26.2839C15.9424 26.216 15.8228 26.0303 15.7204 25.768C15.583 25.4163 15.2588 25.1231 15.133 24.77C14.9217 24.1771 14.5699 23.9427 13.9182 24.0904C13.3808 24.2121 13.0968 24.734 13.3203 25.2018C13.4488 25.4707 13.5909 25.7342 13.7291 26.0237C13.7588 26.085 13.7863 26.1228 13.8146 26.1906C14.114 26.6732 14.3506 27.1749 14.726 27.5667C15.2644 28.1287 15.6604 28.8772 16.6092 29.0106C16.6522 29.0167 16.6971 29.0813 16.7197 29.1273C16.9134 29.5227 17.3022 29.719 17.7063 29.9408C17.9182 30.0539 18.1107 30.1466 18.3329 30.2513C18.4892 30.2825 18.616 30.3016 18.7582 30.3396C18.8218 30.3725 18.8699 30.3867 18.9391 30.4236C19.181 30.4844 19.4018 30.5224 19.63 30.5896C19.9846 30.7051 20.3319 30.7915 20.7174 30.8785C21.4632 30.8797 22.1709 30.8803 22.8955 30.8999C22.9894 30.9061 23.0664 30.8933 23.1792 30.8795C23.4846 30.826 23.7543 30.7734 24.0569 30.7206C24.1556 30.7202 24.2214 30.72 24.3207 30.7159C24.831 30.5285 25.3079 30.3449 25.8168 30.1604C25.974 30.0802 26.0992 30.0008 26.2537 29.9093C26.4393 29.8516 26.5956 29.8059 26.7727 29.7463C26.809 29.6886 26.8246 29.6449 26.8698 29.6008C26.9675 29.5738 27.0357 29.5473 27.1339 29.5173C27.2613 29.4098 27.3588 29.3056 27.4887 29.2012C27.6459 29.1207 27.7709 29.0405 27.9229 28.9492C28.4073 28.5348 28.9187 28.1705 29.3096 27.7198C29.9599 26.9702 30.5136 26.1569 30.8686 25.2442C31.0372 24.8107 30.8425 24.3215 30.401 24.0941C30.0446 23.9105 29.3132 24.1239 29.1082 24.4664C28.6898 25.1655 28.3327 25.8948 27.9454 26.6094C27.9092 26.676 27.8396 26.7288 27.7809 26.7839C27.35 27.1895 26.9178 27.594 26.4515 27.9991C26.2932 28.0526 26.1694 28.1059 26.0173 28.1712C25.5977 28.362 25.2063 28.5409 24.7825 28.7207C24.5958 28.7745 24.4415 28.8275 24.2576 28.8805C24.1597 28.9072 24.0913 28.9336 23.9927 28.963C23.8653 28.9907 23.7682 29.0155 23.6434 29.044C23.575 29.098 23.5344 29.1483 23.4573 29.1988C23.2991 29.1991 23.1774 29.1991 23.0421 29.1822C22.9787 29.1766 22.9287 29.188 22.8378 29.1995C22.0912 29.1726 21.3855 29.1457 20.6696 29.102C20.6416 29.0642 20.6189 29.0495 20.5601 29.0283C20.2093 28.9343 19.8881 28.8584 19.5712 28.77C19.351 28.7087 19.1367 28.6301 18.9022 28.5384C18.7502 28.4514 18.6157 28.3851 18.4662 28.2948C17.962 27.9404 17.4728 27.61 16.9717 27.2556C16.8502 27.1144 16.7407 26.9972 16.6176 26.8559C16.4981 26.6588 16.3923 26.4857 16.2865 26.3127Z" fill="#2989DB"/>
<path d="M38.185 5.65508C37.492 5.65366 36.7773 5.60279 36.0626 5.60157C33.9843 5.59801 31.9812 5.97461 30.018 6.58462C28.2493 7.13419 26.6047 7.88362 25.1336 8.93294C23.7459 9.92273 22.6887 11.1276 22.2461 12.717C22.2247 12.794 22.1885 12.8677 22.1575 12.9424C22.142 12.9798 22.1228 13.016 22.094 13.0762C22.0065 13.0003 21.9436 12.9724 21.9356 12.9349C21.652 11.6085 20.8904 10.5314 19.8487 9.59637C19.6742 9.43977 19.5252 9.25973 19.3633 9.06247C19.7108 9.31482 20.0934 9.56764 20.4013 9.88114C21.1364 10.6296 21.6797 11.4894 22.021 12.4151C22.3841 11.7952 22.6981 11.1341 23.1317 10.5459C23.9387 9.45113 25.0678 8.66124 26.2916 7.97086C28.0321 6.98896 29.929 6.35321 31.892 5.87772C32.5664 5.71437 33.2808 5.68391 33.9787 5.60572C34.6795 5.52721 35.381 5.44384 36.0851 5.40366C36.4793 5.38116 36.8811 5.4281 37.2762 5.46976C37.5747 5.50124 37.8679 5.57395 38.185 5.65508Z" fill="#5096D4"/>
<path d="M17.7207 21.2828C18.0857 21.2457 18.483 21.2356 18.8775 21.1997C19.9657 21.1006 20.9354 20.7319 21.7643 20.0837C21.9998 19.8995 22.1631 19.8915 22.4039 20.0766C23.3448 20.7993 24.4494 21.2267 25.6694 21.2556C26.7069 21.2803 27.7156 21.0528 28.6335 20.5504C29.7943 19.9151 30.7659 19.1066 31.4314 18.0334C31.7709 17.4858 32.0045 16.8842 32.2898 16.3085C32.3438 16.1995 32.4156 16.0977 32.4792 15.9926C32.5306 16.0014 32.5819 16.0103 32.6333 16.0192C32.6818 17.1457 32.7303 18.2721 32.7342 19.4202C32.674 19.4419 32.6585 19.442 32.643 19.442C32.6151 19.1994 32.5669 18.9571 32.5633 18.7142C32.5526 17.9873 32.5595 17.2603 32.5595 16.5414C32.028 17.3495 31.582 18.1646 30.9966 18.8862C30.0754 20.0219 28.8692 20.8393 27.3353 21.2101C25.8476 21.5698 24.4327 21.4324 23.0978 20.7272C22.7515 20.5443 22.4275 20.3265 22.0525 20.1001C21.4681 20.6358 20.7053 21.0119 19.851 21.2046C19.1654 21.3593 18.465 21.5282 17.7207 21.2828Z" fill="#4B93D0"/>
<path d="M32.7653 20.5477C32.8143 20.7905 32.8907 21.0318 32.9075 21.2764C32.9746 22.2523 33.0267 23.2291 33.0775 24.2058C33.1159 24.943 33.1325 25.6812 33.1792 26.4179C33.2657 27.7821 33.7196 29.0421 34.7245 30.0656C35.8174 31.1787 37.2588 31.5665 38.8568 31.3197C40.2235 31.1086 41.2803 30.4115 42.0456 29.353C42.337 28.95 42.6538 28.5622 42.9897 28.163C42.6936 28.6845 42.4299 29.2548 42.0263 29.7262C41.3572 30.5078 40.4918 31.1141 39.4284 31.3777C38.777 31.5391 38.1089 31.6669 37.3898 31.5356C36.2946 31.3355 35.314 30.9769 34.5908 30.1937C33.7137 29.2439 33.1767 28.1489 33.0932 26.8922C33.005 25.5639 32.9085 24.2361 32.8268 22.9075C32.7838 22.2079 32.7648 21.5072 32.7383 20.7392C32.7495 20.6302 32.7574 20.5889 32.7653 20.5477Z" fill="#4B93D0"/>
<path d="M43.5086 26.1503C43.4481 26.0023 43.39 25.838 43.3898 25.6737C43.3846 21.3479 43.3731 17.0222 43.3921 12.6965C43.3987 11.1912 43.0978 9.77505 42.215 8.48334C42.1784 8.42972 42.1717 8.35921 42.1523 8.26624C42.4439 8.68304 42.7888 9.10889 43.0117 9.58223C43.361 10.3241 43.5327 11.1158 43.5565 12.0008C43.5567 12.1796 43.5576 12.2858 43.5577 12.392C43.5607 14.8218 43.5636 17.2516 43.5612 19.7185C43.5594 21.7581 43.563 23.7605 43.5666 25.763C43.557 25.8867 43.5474 26.0104 43.5086 26.1503Z" fill="#5096D4"/>
<path d="M0.628287 12.2261C0.653322 12.3939 0.700048 12.5618 0.70022 12.7296C0.704542 16.9541 0.702501 21.1786 0.707466 25.4031C0.707808 25.6935 0.763619 25.9836 0.773455 26.2744C0.776625 26.3681 0.714985 26.4636 0.65134 26.5707C0.590501 26.41 0.561315 26.237 0.560547 26.004C0.598169 25.7987 0.615266 25.6536 0.61539 25.5084C0.617177 23.4209 0.615205 21.3334 0.617121 19.2459C0.619267 16.906 0.624434 14.566 0.628287 12.2261Z" fill="#5096D4"/>
<path d="M0.628912 12.201C0.625355 14.566 0.620188 16.9059 0.618041 19.2459C0.616126 21.3334 0.618097 23.4208 0.616311 25.5083C0.616186 25.6535 0.59909 25.7987 0.568669 25.9704C0.541114 25.4919 0.529314 24.9869 0.529301 24.4819C0.52919 20.3719 0.531284 16.2618 0.559482 12.1148C0.586257 12.0778 0.625982 12.0754 0.625982 12.0754C0.62686 12.1089 0.627738 12.1424 0.628912 12.201Z" fill="#609ED7"/>
<path d="M11.4434 18.0801C11.4706 17.5266 11.4978 16.973 11.525 16.4198C11.6448 16.3799 11.7484 16.3453 11.8572 16.309C11.8784 16.3396 11.9103 16.3703 11.923 16.4066C12.3515 17.6245 13.0787 18.6728 14.0826 19.5661C14.1524 19.6282 14.1946 19.7159 14.2512 19.8199C13.5862 19.4836 13.137 18.93 12.748 18.3443C12.3771 17.7857 12.0721 17.191 11.6959 16.5393C11.6661 17.0759 11.6403 17.541 11.582 18.043C11.5142 18.08 11.4788 18.08 11.4434 18.0801Z" fill="#5096D4"/>
<path d="M3.61436 30.7945C3.72186 30.8291 3.83943 30.8483 3.93536 30.9005C5.51722 31.7607 7.70563 31.5679 9.02498 30.4091C9.11341 30.3314 9.24383 30.2933 9.38697 30.2377C8.32584 31.4009 6.91803 31.7696 5.31171 31.4998C4.7051 31.3978 4.13204 31.1309 3.54102 30.8944C3.56369 30.8313 3.58902 30.8129 3.61436 30.7945Z" fill="#609ED7"/>
<path d="M10.382 5.65257C9.50079 5.65379 8.59913 5.61701 7.69703 5.60047C6.43284 5.5773 5.23789 5.80199 4.16916 6.45654C4.07707 6.51294 3.9531 6.5263 3.81055 6.55909C4.24487 6.08724 4.8773 5.86482 5.51182 5.68793C6.50067 5.41226 7.53094 5.3932 8.55668 5.44895C9.15992 5.48174 9.75993 5.56374 10.382 5.65257Z" fill="#5096D4"/>
<path d="M0.627591 12.0445C0.626034 12.0755 0.586309 12.0778 0.566406 12.0777C0.569293 11.2018 0.775558 10.3588 1.13841 9.50623C1.19104 9.44015 1.19938 9.40365 1.20773 9.36714C1.57488 8.81028 1.94203 8.25342 2.36144 7.68734C2.43022 7.67818 2.44672 7.67824 2.46579 7.6808C2.46835 7.6833 2.47366 7.68813 2.47366 7.68813C2.20857 8.0935 1.95035 8.50274 1.67689 8.90339C1.18588 9.62278 0.928413 10.4125 0.790678 11.242C0.747725 11.5007 0.683588 11.7565 0.627591 12.0445Z" fill="#5096D4"/>
<path d="M11.441 18.1161C11.4783 18.0801 11.5137 18.08 11.5757 18.0798C11.6062 18.2961 11.6102 18.5123 11.5785 18.7709C11.5331 18.9413 11.5233 19.0695 11.5136 19.1977C11.4543 20.2284 11.3949 21.2592 11.3049 22.3086C11.2442 22.0841 11.1788 21.8395 11.1909 21.598C11.2293 20.8317 11.2965 20.0665 11.3529 19.3009C11.3812 18.9179 11.4103 18.5349 11.441 18.1161Z" fill="#5299D3"/>
<path d="M43.5658 19.6814C43.5629 17.2516 43.56 14.8218 43.5571 12.392C43.5569 12.2858 43.556 12.1796 43.5574 12.0359C43.5892 12.1153 43.6449 12.2322 43.6451 12.3492C43.6495 14.7685 43.6476 17.1878 43.6233 19.6441C43.5997 19.6812 43.5658 19.6814 43.5658 19.6814Z" fill="#D2E7FF"/>
<path d="M14.252 19.8724C14.447 19.9454 14.6572 20.0341 14.8468 20.1506C15.6127 20.621 16.4181 21.0039 17.3437 21.1414C17.3946 21.1489 17.4379 21.1989 17.5024 21.2546C16.2289 21.2184 15.1829 20.6777 14.252 19.8724Z" fill="#5096D4"/>
<path d="M0.803934 27.1937C0.905547 27.3875 0.999883 27.5847 1.11011 27.7743C1.46862 28.391 1.83293 29.0049 2.17506 29.6406C2.10838 29.6415 2.06165 29.6217 2.01492 29.6019C1.41241 29.0024 1.08678 28.2693 0.799275 27.5181C0.766905 27.4335 0.741417 27.3467 0.738281 27.2292C0.763824 27.1975 0.803934 27.1937 0.803934 27.1937Z" fill="#5096D4"/>
<path d="M43.5609 19.7185C43.5662 19.6814 43.6001 19.6812 43.617 19.6813C43.6345 21.6983 43.635 23.7152 43.601 25.7476C43.5628 23.7605 43.5592 21.7581 43.5609 19.7185Z" fill="#D7FFFF"/>
<path d="M40.9141 6.93225C40.6511 6.82145 40.3805 6.67833 40.1017 6.54996C39.5059 6.27563 38.9058 6.00893 38.2891 5.71606C38.7135 5.83606 39.1788 5.93934 39.5932 6.13278C40.0539 6.34787 40.4682 6.64513 40.9141 6.93225Z" fill="#5096D4"/>
<path d="M13.5423 6.2913C12.8663 6.19114 12.1724 6.06772 11.4801 5.93745C11.1566 5.87658 10.8361 5.80247 10.4902 5.71347C11.5277 5.69831 12.5259 5.98357 13.5423 6.2913Z" fill="#5096D4"/>
<path d="M3.59871 30.7719C3.58864 30.8129 3.5633 30.8313 3.52612 30.8692C3.3767 30.7979 3.23913 30.7071 3.0823 30.5721C3.00788 30.5143 2.95271 30.5007 2.89754 30.487C2.70179 30.3181 2.50605 30.1492 2.30217 29.9281C2.29846 29.8582 2.30289 29.8405 2.30731 29.8228C2.73269 30.1316 3.15806 30.4404 3.59871 30.7719Z" fill="#5096D4"/>
<path d="M15.0423 6.76976C14.5644 6.6528 14.0722 6.50916 13.5664 6.33923C14.0445 6.45633 14.5363 6.5997 15.0423 6.76976Z" fill="#5096D4"/>
<path d="M16.8023 7.49106C16.4059 7.3475 15.9954 7.17838 15.582 6.98108C15.9821 7.12377 16.3852 7.29464 16.8023 7.49106Z" fill="#5096D4"/>
<path d="M17.9544 8.05691C17.5856 7.91175 17.2022 7.7402 16.8145 7.54041C17.1866 7.68494 17.5632 7.85773 17.9544 8.05691Z" fill="#5096D4"/>
<path d="M3.08687 7.1239C2.90098 7.30705 2.71509 7.4902 2.50131 7.68074C2.47341 7.68814 2.4681 7.68331 2.47595 7.65945C2.50574 7.59362 2.52768 7.55164 2.54962 7.50967C2.67805 7.35919 2.80648 7.20871 2.97302 7.06506C3.03637 7.08923 3.06162 7.10657 3.08687 7.1239Z" fill="#5096D4"/>
<path d="M19.3543 9.01239C19.1009 8.86888 18.8368 8.70007 18.5703 8.50317C18.8265 8.64575 19.085 8.81641 19.3543 9.01239Z" fill="#5096D4"/>
<path d="M3.75277 6.55688C3.59951 6.71523 3.41554 6.87634 3.21094 7.01879C3.24167 6.93259 3.29305 6.86504 3.34442 6.79748C3.4703 6.7182 3.59618 6.63892 3.75277 6.55688Z" fill="#5096D4"/>
<path d="M32.7609 20.5124C32.7569 20.589 32.749 20.6302 32.7371 20.7026C32.704 20.328 32.6748 19.9221 32.6445 19.4792C32.6589 19.4419 32.6744 19.4419 32.7132 19.4414C32.7403 19.4753 32.744 19.5095 32.7469 19.5921C32.7481 19.6555 32.75 19.6705 32.752 19.6855C32.7537 19.9493 32.7554 20.2131 32.7609 20.5124Z" fill="#6FAAD9"/>
<path d="M41.9177 7.94758C41.7646 7.81425 41.6062 7.65366 41.4492 7.46375C41.6045 7.59638 41.7585 7.75835 41.9177 7.94758Z" fill="#5096D4"/>
<path d="M18.5616 8.45388C18.3974 8.3883 18.221 8.29738 18.041 8.177C18.2081 8.24121 18.3787 8.33487 18.5616 8.45388Z" fill="#5096D4"/>
<path d="M11.5285 19.1706C11.5236 19.0696 11.5333 18.9414 11.5723 18.8065C11.582 18.9144 11.5626 19.029 11.5285 19.1706Z" fill="#5096D4"/>
<path d="M15.5682 6.9299C15.414 6.92 15.2452 6.88354 15.0625 6.81958C15.2169 6.82916 15.3852 6.86625 15.5682 6.9299Z" fill="#5096D4"/>
<path d="M42.1534 8.21225C42.0728 8.16823 41.9897 8.09719 41.918 7.99756C42.0032 8.04106 42.077 8.11315 42.1534 8.21225Z" fill="#5096D4"/>
<path d="M3.31307 6.79883C3.29138 6.86512 3.24001 6.93268 3.17825 7.02337C3.14329 7.05736 3.12268 7.07262 3.09586 7.1081C3.06046 7.10659 3.03521 7.08926 2.99805 7.05313C3.08522 6.95625 3.1843 6.87817 3.31307 6.79883Z" fill="#609ED7"/>
<path d="M2.3022 29.8069C2.3014 29.8404 2.29697 29.8582 2.28832 29.9029C2.19645 29.8386 2.1088 29.7472 2.01758 29.6288C2.06074 29.6216 2.10747 29.6413 2.17868 29.6688C2.20315 29.6765 2.2009 29.6783 2.21073 29.696C2.23828 29.7363 2.26168 29.7515 2.29075 29.7596C2.29075 29.7596 2.29857 29.7911 2.3022 29.8069Z" fill="#609ED7"/>
<path d="M0.623047 26.7285C0.682847 26.7671 0.739004 26.8347 0.776449 26.9309C0.757737 26.9595 0.71903 26.9599 0.71903 26.9599C0.685821 26.8924 0.652612 26.8249 0.623047 26.7285Z" fill="#5096D4"/>
<path d="M9.44141 30.2332C9.46496 30.1675 9.51448 30.0928 9.5964 30.0273C9.575 30.0991 9.52119 30.1617 9.44141 30.2332Z" fill="#609ED7"/>
<path d="M9.66022 30.0235C9.65873 29.9699 9.68349 29.909 9.73879 29.8419C9.74171 29.8959 9.71409 29.956 9.66022 30.0235Z" fill="#609ED7"/>
<path d="M41.274 7.25086C41.2198 7.24195 41.1612 7.2052 41.0996 7.14185C41.1543 7.15117 41.212 7.1871 41.274 7.25086Z" fill="#5096D4"/>
<path d="M2.51891 7.51392C2.52763 7.55163 2.50569 7.5936 2.47334 7.65693C2.44643 7.67823 2.42992 7.67817 2.38867 7.67724C2.40537 7.62363 2.44681 7.5709 2.51891 7.51392Z" fill="#609ED7"/>
<path d="M2.9082 30.5101C2.95217 30.5007 3.00734 30.5143 3.07037 30.548C3.0253 30.5564 2.97235 30.5448 2.9082 30.5101Z" fill="#609ED7"/>
<path d="M0.712901 26.9897C0.718577 26.9599 0.757284 26.9595 0.776673 26.9589C0.798122 27.0172 0.800181 27.0761 0.802996 27.1643C0.803751 27.1936 0.76364 27.1974 0.743526 27.1987C0.718016 27.1398 0.71262 27.0797 0.712901 26.9897Z" fill="#609ED7"/>
<path d="M1.1869 9.37427C1.19956 9.40362 1.19108 9.44012 1.16563 9.48771C1.15436 9.45968 1.16005 9.42055 1.1869 9.37427Z" fill="#1B86E1"/>
<path d="M41.3593 7.33895C41.3415 7.34412 41.3161 7.32862 41.2812 7.2936C41.2985 7.28882 41.325 7.30354 41.3593 7.33895Z" fill="#5096D4"/>
<path d="M41.0954 7.09938C41.0767 7.10494 41.0514 7.08953 41.0176 7.05435C41.0357 7.04919 41.0622 7.06381 41.0954 7.09938Z" fill="#5096D4"/>
<path d="M41.4468 7.41908C41.4289 7.42414 41.4036 7.40845 41.3691 7.37315C41.3865 7.36847 41.4129 7.3834 41.4468 7.41908Z" fill="#5096D4"/>
<path d="M41.0078 7.01886C40.9892 7.02448 40.9637 7.0093 40.9297 6.97432C40.9477 6.96904 40.9742 6.98355 41.0078 7.01886Z" fill="#5096D4"/>
<path d="M27.812 12.3182C27.8687 12.6894 27.9568 13.0594 27.9747 13.4321C28.0019 14.0006 27.9812 14.0014 28.6179 14.0013C28.9545 14.0012 29.2914 13.9931 29.6277 14.0034C30.0913 14.0176 30.3604 14.2713 30.3598 14.6747C30.359 15.1624 30.1121 15.4248 29.6236 15.436C29.2141 15.4454 28.8029 15.4555 28.3946 15.4325C28.0558 15.4134 27.9599 15.5364 27.978 15.8262C28.0004 16.1843 27.9996 16.5452 27.9784 16.9035C27.946 17.4537 27.424 17.7267 26.8531 17.4712C26.8377 17.4426 26.8456 17.435 26.8829 17.438C27.6156 17.4356 27.8076 17.2586 27.809 16.6189C27.8099 16.1737 27.8091 15.7284 27.8091 15.2793C28.4135 15.2793 28.9545 15.2884 29.495 15.2766C29.9671 15.2664 30.1936 15.0501 30.187 14.651C30.1816 14.3265 29.966 14.1665 29.5074 14.1623C28.9538 14.1573 28.4001 14.1612 27.8244 14.1612C27.7862 13.5298 27.7496 12.9263 27.7377 12.3217C27.779 12.3198 27.7955 12.319 27.812 12.3182Z" fill="#5094D2"/>
<path d="M9.76853 12.4944C10.1131 12.3717 10.2365 12.1371 10.2139 11.8103C10.1966 11.5585 10.2106 11.3051 10.2085 11.0524C10.205 10.6409 9.95188 10.4077 9.48335 10.401C9.00072 10.394 8.5175 10.39 8.03525 10.4043C7.75025 10.4127 7.64208 10.3178 7.65348 10.0567C7.6703 9.67168 7.6577 9.28554 7.65618 8.89987C7.65371 8.27399 7.52858 8.14867 6.85725 8.15937C6.41988 8.16634 5.95535 8.05534 5.56885 8.34983C5.53846 8.37298 5.53059 8.42056 5.46233 8.47078C5.4124 8.48477 5.37121 8.48506 5.37121 8.48506C5.36461 8.13177 5.63182 8.02451 5.94242 8.00744C6.36569 7.98418 6.79184 7.99094 7.21622 8.00183C7.55225 8.01046 7.81157 8.29833 7.83481 8.65857C7.86299 9.09516 7.90126 9.53153 7.91366 9.9685C7.91964 10.1794 8.01512 10.2477 8.23392 10.2438C8.67316 10.2361 9.11271 10.239 9.55208 10.2425C10.1279 10.2472 10.5249 10.6813 10.4366 11.1887C10.4147 11.3143 10.4279 11.4492 10.4502 11.5762C10.5338 12.0531 10.3231 12.4213 9.80001 12.6108C9.76828 12.5561 9.76841 12.5253 9.76853 12.4944Z" fill="#5191CF"/>
<path d="M40.7412 12.1531C41.1709 11.7818 41.1522 11.2965 41.0811 10.8339C41.0345 10.5305 40.8255 10.2896 40.3944 10.3146C39.9575 10.3399 39.5172 10.3124 39.0788 10.3218C38.821 10.3274 38.7225 10.251 38.7211 9.99905C38.7184 9.51254 38.6664 9.02633 38.6386 8.53983C38.6242 8.28723 38.5004 8.15326 38.2054 8.15102C37.932 8.14895 37.6555 8.08987 37.3863 8.11303C37.0505 8.14191 36.8674 8.33973 36.8667 8.66062C36.8657 9.17872 36.8598 9.69681 36.8124 10.2143C36.7449 10.1959 36.7211 10.178 36.6973 10.1602C36.6984 10.1466 36.6995 10.1329 36.7149 10.0918C36.7469 10.0387 36.74 10.018 36.7083 10.0023C36.7076 9.96503 36.707 9.92773 36.7297 9.83887C36.7384 9.53992 36.7237 9.29253 36.7091 9.04514C36.7077 9.00758 36.7064 8.97001 36.727 8.88378C36.7367 8.69211 36.7243 8.54911 36.7119 8.40611C36.8372 8.08904 37.07 7.94619 37.4517 7.99238C37.6675 8.01848 37.8898 8.00127 38.1092 8.00083C38.6887 7.99965 38.8843 8.17269 38.8934 8.71073C38.8995 9.06971 38.9137 9.43 38.888 9.78756C38.8659 10.0956 39.0019 10.1837 39.3205 10.1659C39.6848 10.1455 40.0517 10.1665 40.4173 10.1607C40.7956 10.1547 41.0462 10.3062 41.2015 10.621C41.4517 11.1281 41.2541 11.9619 40.7755 12.2079C40.7439 12.1905 40.7412 12.1531 40.7412 12.1531Z" fill="#5A9AD5"/>
<path d="M40.3706 25.6902C40.7878 25.6767 40.8758 25.9554 40.9147 26.2358C40.9647 26.5972 40.8318 26.8942 40.4247 27.0348C40.3297 27.0676 40.2268 27.1006 40.1274 27.101C39.0134 27.1059 37.8994 27.1096 36.7855 27.1015C36.4277 27.0989 36.0684 27.0744 35.7133 27.0346C35.3611 26.9951 35.1663 26.7633 35.1247 26.4712C35.0848 26.1911 35.0405 25.8645 35.5115 25.7564C35.5494 25.758 35.5589 25.767 35.5463 25.7937C35.1332 26.2811 35.211 26.692 35.7676 26.9151C37.2257 26.9416 38.6538 26.9508 40.082 26.9558C40.1317 26.956 40.1817 26.914 40.2627 26.8844C40.896 26.6038 40.9288 26.1706 40.3762 25.7293C40.3728 25.7165 40.3706 25.6902 40.3706 25.6902Z" fill="#418FD5"/>
<path d="M13.0215 14.3969C13.0941 13.8554 13.2922 13.689 13.8409 13.6831C14.1921 13.6793 14.5434 13.6795 14.8946 13.6814C15.4297 13.6844 15.6277 13.8472 15.7245 14.365C15.8001 14.7688 15.4873 15.0248 15.1681 15.0674C14.6326 15.1388 14.0697 15.0928 13.5253 15.0382C13.1814 15.0037 13.0349 14.7399 13.0215 14.3969ZM14.1362 13.8354C14.0191 13.836 13.9018 13.834 13.7848 13.8377C13.4447 13.8481 13.2512 14.0317 13.2073 14.315C13.1618 14.609 13.2472 14.8829 13.642 14.9096C14.1193 14.9419 14.6028 14.9725 15.0775 14.9363C15.3993 14.9117 15.5926 14.632 15.5474 14.3672C15.5012 14.0965 15.341 13.8126 14.922 13.8341C14.6885 13.846 14.4537 13.8359 14.1362 13.8354Z" fill="#569DD5"/>
<path d="M17.6873 14.7373C17.8921 14.9218 18.1481 14.9866 18.4597 14.9649C18.7941 14.9416 19.1321 14.9656 19.4681 14.957C19.7822 14.949 20.0657 14.6753 20.0638 14.3986C20.0619 14.1217 19.7776 13.8479 19.4647 13.8392C19.1434 13.8303 18.8216 13.8391 18.5 13.8369C17.8579 13.8325 17.6865 13.9875 17.68 14.6134C17.4081 14.3639 17.5267 13.8211 17.9299 13.7771C18.5681 13.7074 19.2305 13.7167 19.866 13.799C20.0378 13.8212 20.2449 14.2203 20.2642 14.458C20.2876 14.746 20.0857 15.0655 19.7196 15.0899C19.1576 15.1273 18.5876 15.0989 18.0244 15.0585C17.9044 15.0499 17.7991 14.8703 17.6873 14.7373Z" fill="#5299D3"/>
<path d="M40.7066 12.1431C40.7402 12.153 40.7429 12.1905 40.7439 12.2092C40.2296 12.2553 39.7147 12.2915 39.1989 12.3066C38.935 12.3143 38.8884 12.4408 38.8971 12.6412C38.907 12.8664 38.8742 13.0948 38.9028 13.3173C38.9955 14.0389 38.6242 14.4805 37.6806 14.3954C37.4859 14.3778 37.2715 14.3479 37.1126 14.2568C36.9919 14.1877 36.9448 14.0123 36.8672 13.8513C37.2217 14.2694 38.0034 14.4187 38.4954 14.086C38.6308 13.9944 38.6823 13.763 38.7107 13.5875C38.7465 13.3663 38.7189 13.1367 38.7188 12.9107C38.7187 12.6851 38.7187 12.4595 38.7187 12.1332C39.3755 12.1332 40.0242 12.1332 40.7066 12.1431Z" fill="#5599D7"/>
<path d="M35.5449 25.7536C35.7421 25.6736 35.943 25.5358 36.1465 25.5325C37.4142 25.5121 38.6826 25.5193 39.9507 25.5256C40.0571 25.5261 40.1632 25.587 40.2479 25.6493C38.8797 25.6788 37.5328 25.6768 36.186 25.6818C36.0316 25.6824 35.8773 25.7222 35.696 25.7494C35.6325 25.759 35.5959 25.763 35.5593 25.7671C35.5593 25.7671 35.5498 25.7581 35.5449 25.7536Z" fill="#418FD5"/>
<path d="M9.73273 12.4886C9.76705 12.5253 9.76692 12.5561 9.76648 12.61C9.26849 12.6361 8.77054 12.6491 8.27323 12.6382C8.00924 12.6324 7.90348 12.7138 7.91413 12.9594C7.92968 13.3182 7.9384 13.6795 7.90685 14.0366C7.8936 14.1865 7.76995 14.3284 7.66016 14.478C7.66366 14.108 7.71308 13.7344 7.73998 13.3594C7.7578 13.111 7.74335 12.8607 7.74335 12.5983C8.40756 12.5591 9.05292 12.521 9.73273 12.4886Z" fill="#5A9AD5"/>
<path d="M3.2832 12.5774C3.84166 12.5566 4.4266 12.5739 5.01027 12.5563C5.3472 12.5462 5.47561 12.6316 5.46847 12.9596C5.45796 13.4427 5.51518 13.927 5.54712 14.4453C5.46275 14.3335 5.31648 14.1928 5.29875 14.0398C5.25934 13.6998 5.27393 13.3533 5.28632 13.01C5.29618 12.7367 5.17121 12.6347 4.87252 12.6361C4.35148 12.6385 3.83028 12.6142 3.2832 12.5774Z" fill="#6FAAD9"/>
<path d="M24.1054 14.4689C24.0795 14.1123 24.3197 14.0081 24.6513 14.0039C25.102 13.9982 25.5546 14.0217 26.0026 13.9893C26.1429 13.9791 26.2709 13.8289 26.4331 13.7105C26.4935 13.6778 26.5252 13.6774 26.5646 13.711C26.6269 14.0753 26.4767 14.1957 26.1097 14.1655C25.7794 14.1383 25.4427 14.1787 25.1116 14.1556C24.7171 14.1282 24.3742 14.1884 24.1136 14.4793C24.1114 14.4755 24.1054 14.4689 24.1054 14.4689Z" fill="#5299D3"/>
<path d="M17.1874 17.2759C17.1845 16.7859 17.2515 16.2903 17.2325 15.7974C17.2182 15.4255 16.7441 15.2715 16.2285 15.4422C16.4291 15.1355 17.0441 15.1591 17.286 15.4882C17.4733 15.7431 17.4274 16.9902 17.1874 17.2759Z" fill="#65A2D0"/>
<path d="M35.7227 25.7438C35.877 25.7222 36.0313 25.6823 36.1857 25.6817C37.5325 25.6767 38.8794 25.6787 40.2678 25.6748C40.3093 25.671 40.3393 25.6826 40.355 25.6864C40.3706 25.6901 40.3729 25.7165 40.3368 25.7362C38.7747 25.7519 37.2487 25.7478 35.7227 25.7438Z" fill="#ADCFF1"/>
<path d="M36.655 10.16C36.7201 10.178 36.744 10.1958 36.7782 10.2327C36.2775 10.2744 35.7663 10.3135 35.2552 10.3128C34.9961 10.3124 34.7899 10.3471 34.6228 10.5652C34.5679 10.1624 34.9283 10.1875 35.1884 10.1703C35.6613 10.1389 36.1384 10.1604 36.655 10.16Z" fill="#5599D7"/>
<path d="M5.54492 14.5046C6.18135 14.8568 6.83974 14.8046 7.54024 14.5417C7.49173 14.6234 7.41016 14.8055 7.33068 14.8047C6.7783 14.7995 6.22592 14.7609 5.67503 14.7174C5.62608 14.7135 5.58773 14.5986 5.54492 14.5046Z" fill="#6FAAD9"/>
<path d="M26.8336 17.4464C26.4757 17.4347 26.4079 17.2075 26.4029 16.9524C26.3937 16.4744 26.3984 15.9963 26.4202 15.48C26.4595 15.4417 26.476 15.4416 26.4898 15.473C26.5099 15.6305 26.537 15.7559 26.5548 15.8823C26.6282 16.4035 26.395 16.9719 26.8453 17.4349C26.8453 17.4349 26.8374 17.4425 26.8336 17.4464Z" fill="#5094D2"/>
<path d="M5.18587 10.3845C4.69136 10.3886 4.19666 10.3868 3.70245 10.4001C3.54896 10.4043 3.39682 10.4495 3.20703 10.4812C3.32711 10.4052 3.47951 10.2644 3.64221 10.2537C4.12885 10.2219 4.61952 10.2411 5.15413 10.2437C5.19964 10.247 5.20831 10.2548 5.20364 10.2762C5.1946 10.3266 5.19024 10.3556 5.18587 10.3845Z" fill="#5191CF"/>
<path d="M34.558 10.5665C34.5887 10.9901 34.5857 11.4176 34.5863 11.8825C34.2418 11.6454 34.2063 10.9129 34.558 10.5665Z" fill="#5599D7"/>
<path d="M3.14055 10.4806C2.858 10.7051 2.87992 11.0195 2.89265 11.3359C2.90275 11.5867 2.89521 11.8381 2.88956 12.127C2.835 12.1065 2.74628 12.0493 2.74432 11.9898C2.73255 11.6313 2.70466 11.2678 2.75857 10.9155C2.78254 10.759 2.98494 10.625 3.14055 10.4806Z" fill="#6FAAD9"/>
<path d="M5.37088 10.1744C5.37088 10.1744 5.36963 10.2077 5.33836 10.2241C5.27446 10.2453 5.24183 10.2501 5.2092 10.2548C5.2092 10.2548 5.20053 10.247 5.19619 10.2431C5.19257 9.80513 5.18658 9.37095 5.1983 8.93717C5.2016 8.81486 5.25676 8.6937 5.32509 8.599C5.36499 9.14213 5.36794 9.65827 5.37088 10.1744Z" fill="#5191CF"/>
<path d="M35.9219 29.0803C37.044 29.0537 38.1942 29.0502 39.3854 29.0554C39.1547 29.085 38.883 29.1232 38.6112 29.1235C37.7241 29.1242 36.837 29.1111 35.9219 29.0803Z" fill="#94C4F3"/>
<path d="M15.9672 15.699C16.0002 16.051 16.0004 16.4232 16.0181 16.7947C16.0247 16.9345 16.0719 17.0727 16.1055 17.2456C16.0308 17.2128 15.8825 17.1458 15.8828 17.0793C15.8848 16.6257 15.9181 16.1723 15.9672 15.699Z" fill="#65A2D0"/>
<path d="M26.5571 13.677C26.5253 13.6774 26.4935 13.6778 26.4382 13.6781C26.4116 13.3129 26.3917 12.9469 26.4139 12.5831C26.4225 12.442 26.5265 12.3058 26.6251 12.1633C26.6632 12.1592 26.6758 12.1705 26.6685 12.2032C26.6265 12.7163 26.5918 13.1967 26.5571 13.677Z" fill="#5F98C8"/>
<path d="M27.8107 12.2883C27.7959 12.319 27.7794 12.3197 27.7088 12.3102C27.3975 11.938 27.27 11.9211 26.6755 12.1705C26.6755 12.1705 26.6629 12.1592 26.6562 12.1537C26.6803 11.8517 26.9234 11.8373 27.1631 11.8434C27.4729 11.8512 27.7431 11.9284 27.8107 12.2883Z" fill="#5F98C8"/>
<path d="M26.4935 15.4415C26.477 15.4416 26.4606 15.4418 26.4193 15.4429C25.9628 15.4277 25.5307 15.4161 25.0993 15.3938C24.8644 15.3816 24.6307 15.3514 24.3867 15.3041C24.377 15.279 24.384 15.2726 24.4247 15.275C25.0588 15.2784 25.6523 15.273 26.2452 15.2874C26.3295 15.2894 26.4108 15.3877 26.4935 15.4415Z" fill="#5191CF"/>
<path d="M36.7752 12.2577C36.8073 12.7181 36.8365 13.2069 36.8617 13.7345C36.807 13.7171 36.7117 13.6601 36.7129 13.6047C36.7224 13.165 36.7502 12.7256 36.7752 12.2577Z" fill="#5599D7"/>
<path d="M5.40234 10.1553C5.36626 9.65826 5.36332 9.14212 5.35644 8.58753C5.35251 8.54908 5.36148 8.5171 5.36546 8.50105C5.36944 8.48499 5.41063 8.4847 5.43116 8.48352C5.44629 9.03361 5.44088 9.58488 5.40234 10.1553Z" fill="#7EACD6"/>
<path d="M34.9395 12.0938C35.517 12.0969 36.0945 12.1 36.6918 12.1347C36.6439 12.167 36.5761 12.1678 36.4479 12.1668C36.3696 12.1665 36.3518 12.168 36.334 12.1694C36.0157 12.1706 35.6974 12.1718 35.3073 12.1692C35.1368 12.1415 35.0381 12.1176 34.9395 12.0938Z" fill="#6FAAD9"/>
<path d="M24.1936 15.1267C23.9235 14.9565 23.8458 14.7486 24.0727 14.4779C24.1038 14.4688 24.1098 14.4755 24.1108 14.5124C24.1425 14.7382 24.1732 14.9272 24.2012 15.1187C24.1985 15.1212 24.1936 15.1267 24.1936 15.1267Z" fill="#5191CF"/>
<path d="M16.748 17.5199C16.8427 17.4401 16.9714 17.3616 17.1306 17.2789C17.0348 17.357 16.9085 17.4391 16.748 17.5199Z" fill="#65A2D0"/>
<path d="M36.7053 9.08069C36.7239 9.2925 36.7389 9.53988 36.7316 9.81088C36.7067 9.59509 36.7042 9.35568 36.7053 9.08069Z" fill="#5599D7"/>
<path d="M16.1973 17.382C16.3478 17.4089 16.5029 17.4641 16.6902 17.5166C16.5489 17.4793 16.3754 17.4448 16.1973 17.382Z" fill="#65A2D0"/>
<path d="M36.7064 8.43933C36.7238 8.5491 36.7364 8.69211 36.7274 8.85559C36.7045 8.74156 36.7031 8.60706 36.7064 8.43933Z" fill="#5599D7"/>
<path d="M34.9152 12.0907C35.0391 12.1176 35.1378 12.1415 35.2686 12.1694C35.1537 12.165 35.0066 12.1565 34.8496 12.1214C34.8564 12.0923 34.8732 12.09 34.9152 12.0907Z" fill="#5599D7"/>
<path d="M16.1689 15.4434C16.1574 15.4939 16.1153 15.5467 16.043 15.607C16.0546 15.5582 16.0965 15.5019 16.1689 15.4434Z" fill="#65A2D0"/>
<path d="M2.28229 29.7421C2.26319 29.7516 2.2398 29.7363 2.21289 29.6957C2.23184 29.6869 2.25471 29.7025 2.28229 29.7421Z" fill="#5096D4"/>
<path d="M24.2807 15.2078C24.2534 15.1981 24.2312 15.1825 24.2041 15.1438C24.1941 15.1267 24.199 15.1213 24.2228 15.1252C24.2615 15.1516 24.2765 15.174 24.2887 15.1992C24.2859 15.202 24.2807 15.2078 24.2807 15.2078Z" fill="#5191CF"/>
<path d="M34.6816 12.0149C34.6986 12.0097 34.7263 12.0249 34.7654 12.0604C34.7487 12.0656 34.7205 12.0505 34.6816 12.0149Z" fill="#5599D7"/>
<path d="M36.3457 12.1805C36.3523 12.1679 36.37 12.1666 36.4146 12.1671C36.4132 12.1765 36.3851 12.1841 36.3457 12.1805Z" fill="#5599D7"/>
<path d="M3.08789 12.4156C3.10407 12.4115 3.13112 12.4268 3.16755 12.4628C3.15088 12.4674 3.12482 12.4512 3.08789 12.4156Z" fill="#6FAAD9"/>
<path d="M2.91016 12.25C2.92659 12.2467 2.9533 12.2634 2.98812 12.3012C2.97096 12.3049 2.9457 12.2875 2.91016 12.25Z" fill="#6FAAD9"/>
<path d="M3 12.3349C3.01571 12.3313 3.04188 12.3465 3.0763 12.382C3.05985 12.3861 3.03515 12.3699 3 12.3349Z" fill="#6FAAD9"/>
<path d="M34.5938 11.9344C34.6105 11.9299 34.6368 11.9447 34.6711 11.9799C34.6538 11.9848 34.6285 11.9693 34.5938 11.9344Z" fill="#5599D7"/>
<path d="M24.3732 15.282C24.3418 15.2771 24.3192 15.2626 24.2918 15.2246C24.282 15.2078 24.2872 15.202 24.311 15.2052C24.3607 15.2237 24.3772 15.2451 24.3841 15.2726C24.3841 15.2726 24.377 15.279 24.3732 15.282Z" fill="#5191CF"/>
<path d="M11.6644 16.0442C11.6564 16.0488 11.6724 16.0396 11.6644 16.0442V16.0442Z" fill="#5096D4"/>
<path d="M11.5695 16.2032C11.5655 16.1963 11.5735 16.21 11.5695 16.2032V16.2032Z" fill="#5096D4"/>
<path d="M16.1133 17.2928C16.1294 17.289 16.1557 17.3044 16.1905 17.3402C16.1739 17.3444 16.1487 17.3282 16.1133 17.2928Z" fill="#65A2D0"/>
<path d="M32.7621 19.6758C32.7494 19.6705 32.7475 19.6555 32.7481 19.6179C32.7581 19.6189 32.7655 19.6425 32.7621 19.6758Z" fill="#4B93D0"/>
<path d="M36.7042 10.0212C36.7393 10.0179 36.7464 10.0386 36.7159 10.0714C36.7036 10.0784 36.7014 10.0402 36.7042 10.0212Z" fill="#5599D7"/>
<path d="M26.0462 28.1593C26.17 28.106 26.2938 28.0527 26.4525 28.0349C26.4896 28.2417 26.4539 28.4236 26.5071 28.5806C26.5431 28.687 26.7692 28.8495 26.7992 28.8317C27.2152 28.5856 27.5457 28.8307 27.8965 28.9604C27.7715 29.0406 27.6465 29.1208 27.4716 29.1801C27.3199 29.136 27.218 29.1128 27.1162 29.0896C27.1123 29.2333 27.1084 29.377 27.1045 29.5208C27.0363 29.5473 26.9681 29.5739 26.855 29.587C26.7909 29.6357 26.7717 29.698 26.7525 29.7603C26.5962 29.806 26.4399 29.8516 26.223 29.9056C26.0499 29.8719 25.9373 29.8298 25.8573 29.7999C25.9398 29.6759 26.0735 29.5647 26.0552 29.4809C26.0289 29.3601 25.8922 29.2591 25.8026 29.1497C25.6797 29.3491 25.5569 29.5484 25.476 29.6796C25.6097 29.8878 25.6976 30.0246 25.7854 30.1614C25.3085 30.345 24.8316 30.5285 24.3177 30.6891C24.2302 30.6152 24.1798 30.5642 24.1295 30.5132C24.0945 30.5824 24.0596 30.6517 24.0246 30.7209C23.7549 30.7735 23.4853 30.826 23.163 30.8603C23.0333 30.855 22.9562 30.868 22.8791 30.881C22.1715 30.8804 21.4638 30.8798 20.7133 30.8493C20.4032 30.4599 19.9895 30.5894 19.6233 30.5605C19.4024 30.5225 19.1816 30.4845 18.937 30.4007C18.8566 30.3436 18.8 30.3322 18.7433 30.3208C18.6166 30.3017 18.4899 30.2826 18.3333 30.2194C18.2732 29.7408 18.0026 29.7862 17.6875 29.9205C17.3028 29.7191 16.914 29.5227 16.7203 29.1274C16.6978 29.0813 16.6528 29.0167 16.6098 29.0107C15.661 28.8773 15.265 28.1287 14.7266 27.5668C14.3512 27.175 14.1146 26.6733 13.8345 26.1765C13.8111 26.0883 13.7693 26.0442 13.7275 26.0002C13.5915 25.7342 13.4494 25.4708 13.3209 25.2019C13.0974 24.7341 13.3814 24.2122 13.9188 24.0905C14.5705 23.9428 14.9223 24.1772 15.1336 24.7701C15.2594 25.1232 15.5837 25.4164 15.721 25.7681C15.8234 26.0304 15.943 26.2161 16.2565 26.3129C16.2884 26.314 16.2806 26.3198 16.2839 26.3163C16.3929 26.4858 16.4987 26.6589 16.6183 26.8872C16.6146 27.1713 16.7174 27.2963 16.9842 27.2796C17.4734 27.61 17.9626 27.9405 18.454 28.3204C18.4562 28.4755 18.4562 28.5811 18.4562 28.703C18.6649 28.6384 18.7926 28.5988 18.9203 28.5593C19.1373 28.6302 19.3516 28.7087 19.5718 28.7701C19.8887 28.8585 20.2099 28.9344 20.5615 29.0462C20.6226 29.0908 20.6516 29.1048 20.6805 29.1188C21.3861 29.1457 22.0918 29.1727 22.8518 29.2169C22.9562 29.2226 23.0062 29.2109 23.0562 29.1993C23.178 29.1992 23.2997 29.1991 23.4859 29.1956C23.5909 29.1415 23.6313 29.0909 23.6717 29.0403C23.7688 29.0155 23.866 28.9908 24.0115 28.9826C24.1359 28.9595 24.2118 28.92 24.2877 28.8804C24.4421 28.8275 24.5964 28.7746 24.8054 28.7427C25.669 29.0284 26.0336 28.8426 26.0462 28.1593ZM24.6937 29.2522C24.7674 29.2764 24.841 29.3006 24.9147 29.3248C24.9216 29.2895 24.9286 29.2542 24.9356 29.2189C24.8686 29.2189 24.8015 29.2189 24.6937 29.2522Z" fill="#2088E0"/>
<path d="M27.9244 28.9492C27.5465 28.8307 27.216 28.5856 26.8 28.8317C26.77 28.8495 26.5439 28.687 26.5079 28.5806C26.4548 28.4236 26.4904 28.2417 26.4879 28.0346C26.9193 27.5941 27.3514 27.1896 27.7823 26.784C27.841 26.7288 27.9107 26.6761 27.9468 26.6095C28.3342 25.8949 28.6912 25.1655 29.1096 24.4665C29.3146 24.124 30.046 23.9106 30.4025 24.0942C30.844 24.3216 31.0386 24.8108 30.87 25.2443C30.515 26.1569 29.9613 26.9702 29.3111 27.7199C28.9201 28.1706 28.4087 28.5349 27.9244 28.9492Z" fill="#2287DE"/>
<path d="M26.0181 28.1711C26.0338 28.8425 25.6691 29.0282 24.8379 28.7416C25.207 28.5409 25.5984 28.362 26.0181 28.1711Z" fill="#2287DE"/>
<path d="M25.818 30.1605C25.6981 30.0246 25.6103 29.8878 25.4766 29.6796C25.5574 29.5484 25.6803 29.349 25.8032 29.1497C25.8928 29.2591 26.0295 29.36 26.0558 29.4809C26.074 29.5647 25.9403 29.6759 25.8579 29.7998C25.9379 29.8297 26.0504 29.8718 26.1943 29.9177C26.1004 30.0009 25.9752 30.0802 25.818 30.1605Z" fill="#2287DE"/>
<path d="M19.6309 30.5896C19.9898 30.5894 20.4035 30.4598 20.6754 30.8487C20.3328 30.7916 19.9855 30.7051 19.6309 30.5896Z" fill="#2287DE"/>
<path d="M17.707 29.9408C18.0027 29.7861 18.2733 29.7407 18.3038 30.2073C18.1115 30.1466 17.9189 30.0539 17.707 29.9408Z" fill="#2287DE"/>
<path d="M27.1344 29.5173C27.1083 29.377 27.1122 29.2332 27.1161 29.0895C27.2179 29.1127 27.3198 29.1359 27.4392 29.1803C27.3594 29.3056 27.2618 29.4098 27.1344 29.5173Z" fill="#2287DE"/>
<path d="M18.9036 28.5385C18.7934 28.5988 18.6657 28.6384 18.457 28.703C18.457 28.5811 18.457 28.4755 18.4699 28.3444C18.6172 28.3851 18.7516 28.4514 18.9036 28.5385Z" fill="#2287DE"/>
<path d="M16.9732 27.2556C16.7183 27.2962 16.6155 27.1712 16.6327 26.9111C16.7422 26.9971 16.8517 27.1144 16.9732 27.2556Z" fill="#2287DE"/>
<path d="M24.0586 30.7207C24.0607 30.6517 24.0956 30.5824 24.1306 30.5132C24.1809 30.5642 24.2313 30.6151 24.2853 30.693C24.2231 30.72 24.1573 30.7202 24.0586 30.7207Z" fill="#2287DE"/>
<path d="M22.8965 30.8999C22.9566 30.8679 23.0338 30.8549 23.1277 30.8612C23.0674 30.8933 22.9904 30.9061 22.8965 30.8999Z" fill="#2287DE"/>
<path d="M24.2594 28.8806C24.213 28.92 24.1371 28.9595 24.043 28.9796C24.0932 28.9337 24.1615 28.9072 24.2594 28.8806Z" fill="#2287DE"/>
<path d="M26.7735 29.7462C26.772 29.6979 26.7912 29.6356 26.8258 29.5873C26.8255 29.6449 26.8099 29.6886 26.7735 29.7462Z" fill="#2287DE"/>
<path d="M18.7598 30.3396C18.801 30.3321 18.8576 30.3435 18.917 30.3779C18.8715 30.3868 18.8234 30.3726 18.7598 30.3396Z" fill="#2287DE"/>
<path d="M23.0426 29.1822C23.006 29.2111 22.956 29.2228 22.8926 29.217C22.9292 29.1881 22.9791 29.1765 23.0426 29.1822Z" fill="#2287DE"/>
<path d="M23.645 29.0439C23.6323 29.0908 23.5919 29.1414 23.5234 29.1952C23.536 29.1482 23.5766 29.098 23.645 29.0439Z" fill="#2287DE"/>
<path d="M13.7305 26.0237C13.7701 26.0442 13.8118 26.0883 13.8344 26.1465C13.7876 26.1228 13.7602 26.0851 13.7305 26.0237Z" fill="#2287DE"/>
<path d="M20.6711 29.102C20.6525 29.1047 20.6235 29.0907 20.5938 29.0589C20.6204 29.0495 20.6431 29.0642 20.6711 29.102Z" fill="#2287DE"/>
<path d="M6.18423 10.8738C6.79137 10.7215 7.18126 10.9197 7.3439 11.4372C7.44977 11.774 7.1344 12.2261 6.67323 12.267C6.42872 12.2887 6.08648 12.1825 5.92605 12.0211C5.68624 11.7797 5.59474 11.4338 5.86057 11.1211C5.93899 11.0289 6.0529 10.9616 6.18423 10.8738ZM6.69681 12.0787C7.0522 11.9541 7.23335 11.7259 7.13384 11.3802C7.04295 11.0645 6.76182 10.9312 6.43323 10.9802C6.12503 11.0262 5.88429 11.2248 5.92715 11.5311C5.97491 11.8723 6.17821 12.1246 6.69681 12.0787Z" fill="#4D96D0"/>
<path d="M5.2042 10.2763C5.2415 10.2501 5.27413 10.2453 5.33168 10.2397C5.32085 10.2917 5.28512 10.3444 5.21791 10.3909C5.1908 10.3556 5.19516 10.3267 5.2042 10.2763Z" fill="#7EACD6"/>
<path d="M39.1585 21.1302C39.025 22.0836 38.4685 22.241 37.8616 22.2417C37.3095 22.2424 36.8392 21.7756 36.774 21.2592C36.6991 20.666 37.2902 20.2048 37.7652 20.157C38.3607 20.097 39.0186 20.4029 39.1585 21.1302Z" fill="#2989DB"/>
<path d="M35.7676 26.9151C37.2071 26.8917 38.6766 26.8862 40.1888 26.8861C40.1817 26.9139 40.1317 26.9559 40.0819 26.9558C38.6538 26.9508 37.2256 26.9416 35.7676 26.9151Z" fill="#D0FEFE"/>
<path d="M24.7148 29.2355C24.8023 29.2189 24.8693 29.2189 24.9364 29.2189C24.9294 29.2542 24.9224 29.2895 24.9154 29.3247C24.8417 29.3005 24.7681 29.2763 24.7148 29.2355Z" fill="#2287DE"/>
<path d="M6.66133 12.0803C6.1779 12.1246 5.97459 11.8723 5.92683 11.5311C5.88397 11.2248 6.12472 11.0262 6.43291 10.9802C6.7615 10.9312 7.04263 11.0645 7.13353 11.3803C7.23303 11.7259 7.05189 11.9541 6.66133 12.0803Z" fill="#1B87E1"/>
</svg>
