<svg width="12" height="16" viewBox="0 0 12 16" fill="none" xmlns="http://www.w3.org/2000/svg">
<path d="M2.05187 15.3221C1.62121 15.3221 1.25229 15.1793 0.945125 14.8938C0.637958 14.6077 0.484375 14.2541 0.484375 13.8329V3.26182C0.484375 2.85121 0.624236 2.49126 0.903958 2.18199C1.18368 1.87271 1.52832 1.67532 1.93787 1.58982L8.88871 0.12207V11.6931L1.87454 13.2123C1.71515 13.2487 1.57556 13.3215 1.45575 13.4308C1.33594 13.5395 1.27604 13.6736 1.27604 13.8329C1.27604 14.0388 1.3531 14.2066 1.50721 14.3364C1.66132 14.4663 1.84314 14.5309 2.05267 14.5304H10.776V2.6554H11.5677V15.3221H2.05187ZM2.3725 12.3058L3.16417 12.1419V2.14874L2.3725 2.31261V12.3058Z" fill="#BE707C"/>
</svg>
