<svg width="11" height="16" viewBox="0 0 11 16" fill="none" xmlns="http://www.w3.org/2000/svg">
<path d="M4.0254 14.6973H7.0254V15.6973H4.0254V14.6973ZM3.5254 13.1973H7.5254V14.1973H3.5254V13.1973ZM9.06978 2.15634C8.13009 1.2154 6.87134 0.69728 5.5254 0.69728C4.86836 0.695714 4.21747 0.823974 3.61014 1.07469C3.0028 1.32541 2.45098 1.69365 1.98638 2.15825C1.52177 2.62286 1.15354 3.17468 0.902817 3.78201C0.652099 4.38935 0.523839 5.04023 0.525405 5.69728C0.525405 7.15415 1.08384 8.51697 2.05665 9.43603L2.1929 9.56384C2.75572 10.0901 3.5254 10.811 3.5254 11.4473V12.6973H5.0254V8.60697L3.64165 7.82228L4.2129 7.00103L5.5254 7.69728L6.81572 6.99759L7.41259 7.80009L6.0254 8.61259V12.6973H7.5254V11.4473C7.5254 10.826 8.28665 10.1057 8.84259 9.57947L8.99603 9.43384C9.99665 8.47853 10.5254 7.18509 10.5254 5.69728C10.5287 5.04017 10.4018 4.38892 10.1519 3.78115C9.90209 3.17338 9.53429 2.62114 9.06978 2.15634Z" fill="#F4DB00"/>
</svg>
