<svg width="11" height="16" viewBox="0 0 11 16" fill="none" xmlns="http://www.w3.org/2000/svg">
<path d="M1.02539 5.69629C1.02398 5.1051 1.13965 4.51911 1.36523 3.97266C1.56267 3.49447 1.84088 3.05444 2.1875 2.67188L2.33984 2.51172C2.75782 2.09374 3.25441 1.76269 3.80078 1.53711C4.2789 1.33973 4.78715 1.22639 5.30273 1.20215L5.52441 1.19727H5.52539C6.66457 1.19727 7.73003 1.60724 8.55469 2.35547L8.71582 2.50977C9.13363 2.92784 9.46472 3.42501 9.68945 3.97168C9.88603 4.44998 9.99858 4.95813 10.0215 5.47363L10.0254 5.69434V5.69727C10.0254 7.0598 9.5445 8.2182 8.65137 9.07129L8.49805 9.2168C8.22505 9.47522 7.87063 9.81053 7.58594 10.165C7.31567 10.5016 7.0254 10.9536 7.02539 11.4473V12.1973H6.52539V8.89844L7.66504 8.23145L8.14648 7.94922L7.81348 7.50195L7.2168 6.69922L6.95801 6.35156L6.57715 6.55762L5.52246 7.12988L4.44727 6.55957L4.05566 6.35156L3.80273 6.71582L3.23145 7.53711L2.91797 7.98633L3.39453 8.25684L4.52539 8.89844V12.1973H4.02539V11.4473C4.02539 10.9465 3.73376 10.4908 3.45898 10.1504C3.31474 9.97169 3.15272 9.79854 2.99219 9.6377L2.53418 9.19824L2.39941 9.07227H2.40039C1.53692 8.2565 1.02539 7.03004 1.02539 5.69727V5.69629Z" fill="#4255FF" stroke="#4255FF"/>
</svg>
