<svg width="69" height="89" viewBox="0 0 69 89" fill="none" xmlns="http://www.w3.org/2000/svg">
<path d="M68.6396 81.3051C69.009 81.7196 68.9725 82.3551 68.558 82.7245L61.8034 88.7451C61.3889 89.1146 60.7534 89.0781 60.3839 88.6636C60.0145 88.2491 60.051 87.6135 60.4655 87.2441L66.4696 81.8925L61.1179 75.8884C60.7485 75.4739 60.785 74.8383 61.1995 74.4689C61.614 74.0994 62.2495 74.136 62.619 74.5505L68.6396 81.3051ZM24.449 1.61862C23.9244 2.00524 23.4072 2.39808 22.8975 2.79685L21.6585 1.21323C22.1834 0.80256 22.7159 0.398066 23.256 2.2756e-05L24.449 1.61862ZM19.9111 5.27658C18.9329 6.13855 17.9879 7.02295 17.0781 7.92744L15.6605 6.50143C16.5992 5.56825 17.5736 4.6563 18.5818 3.76793L19.9111 5.27658ZM14.4144 10.745C13.5489 11.7202 12.7229 12.7143 11.9383 13.7245L10.3502 12.4911C11.1622 11.4456 12.0163 10.4178 12.9105 9.41034L14.4144 10.745ZM9.67078 16.8602C8.94496 17.9417 8.26601 19.0377 7.636 20.1452L5.88826 19.151C6.54334 17.9994 7.24844 16.8614 8.00118 15.7397L9.67078 16.8602ZM5.86172 23.57C5.31093 24.7468 4.81577 25.9328 4.37851 27.1245L2.49083 26.4319C2.94857 25.1843 3.46608 23.9451 4.04058 22.7177L5.86172 23.57ZM3.22115 30.7949C2.89136 32.0454 2.62695 33.2983 2.43037 34.5502L0.443975 34.2382C0.651516 32.9166 0.930228 31.5966 1.2769 30.2821L3.22115 30.7949ZM2.04393 38.357C1.98621 39.6355 2.00255 40.9091 2.09564 42.174L0.0903241 42.3216C-0.00876089 40.9753 -0.0259734 39.6221 0.0352369 38.2663L2.04393 38.357ZM2.61036 45.9513C2.8591 47.1896 3.18674 48.4162 3.59621 49.6276L1.69136 50.2715C1.25416 48.9781 0.904416 47.6686 0.638998 46.3473L2.61036 45.9513ZM5.04229 53.1488C5.58929 54.273 6.2139 55.3808 6.91899 56.4688L5.23158 57.5623C4.4824 56.4062 3.81741 55.2271 3.23423 54.0286L5.04229 53.1488ZM9.18103 59.5526C9.97373 60.5146 10.8371 61.4578 11.7735 62.3793L10.3631 63.8124C9.3782 62.8432 8.46747 61.8486 7.6292 60.8312L9.18103 59.5526ZM14.639 64.9421C15.6062 65.7304 16.6342 66.4992 17.7247 67.2464L16.5881 68.9051C15.4532 68.1274 14.3805 67.3254 13.3687 66.5008L14.639 64.9421ZM20.9864 69.3061C22.0694 69.9367 23.2037 70.5485 24.3905 71.1399L23.4936 72.9396C22.2692 72.3294 21.0965 71.697 19.9746 71.0438L20.9864 69.3061ZM27.9139 72.7684C29.0794 73.2676 30.2887 73.749 31.5428 74.2114L30.8471 76.098C29.5618 75.624 28.3204 75.1299 27.1222 74.6167L27.9139 72.7684ZM35.229 75.474C36.4302 75.8556 37.6679 76.2211 38.9427 76.5697L38.4124 78.5092C37.112 78.1537 35.8481 77.7805 34.6202 77.3904L35.229 75.474ZM42.7356 77.5305C43.9815 77.8221 45.2595 78.0986 46.5702 78.3594L46.1778 80.3314C44.8457 80.0664 43.5457 79.7852 42.2774 79.4883L42.7356 77.5305ZM50.3836 79.0576C51.6556 79.2711 52.956 79.4705 54.2852 79.6555L54.008 81.647C52.6608 81.4596 51.3418 81.2573 50.0509 81.0406L50.3836 79.0576ZM58.137 80.1414C59.4152 80.2864 60.7181 80.4188 62.046 80.5379L61.8663 82.5406C60.523 82.4201 59.2044 82.2862 57.9102 82.1393L58.137 80.1414ZM65.9448 80.8448C66.6062 80.8898 67.2735 80.9316 67.9467 80.9703L67.8314 82.9777C67.1513 82.9387 66.4769 82.8964 65.8084 82.8509L65.9448 80.8448ZM68.6396 81.3051C69.009 81.7196 68.9725 82.3551 68.558 82.7245L61.8034 88.7451C61.3889 89.1146 60.7534 89.0781 60.3839 88.6636C60.0145 88.2491 60.051 87.6135 60.4655 87.2441L66.4696 81.8925L61.1179 75.8884C60.7485 75.4739 60.785 74.8383 61.1995 74.4689C61.614 74.0994 62.2495 74.136 62.619 74.5505L68.6396 81.3051ZM24.449 1.61862C23.9244 2.00524 23.4072 2.39808 22.8975 2.79685L21.6585 1.21323C22.1834 0.80256 22.7159 0.398066 23.256 2.2756e-05L24.449 1.61862ZM19.9111 5.27658C18.9329 6.13855 17.9879 7.02295 17.0781 7.92744L15.6605 6.50143C16.5992 5.56825 17.5736 4.6563 18.5818 3.76793L19.9111 5.27658ZM14.4144 10.745C13.5489 11.7202 12.7229 12.7143 11.9383 13.7245L10.3502 12.4911C11.1622 11.4456 12.0163 10.4178 12.9105 9.41034L14.4144 10.745ZM9.67078 16.8602C8.94496 17.9417 8.26601 19.0377 7.636 20.1452L5.88826 19.151C6.54334 17.9994 7.24844 16.8614 8.00118 15.7397L9.67078 16.8602ZM5.86172 23.57C5.31093 24.7468 4.81577 25.9328 4.37851 27.1245L2.49083 26.4319C2.94857 25.1843 3.46608 23.9451 4.04058 22.7177L5.86172 23.57ZM3.22115 30.7949C2.89136 32.0454 2.62695 33.2983 2.43037 34.5502L0.443975 34.2382C0.651516 32.9166 0.930228 31.5966 1.2769 30.2821L3.22115 30.7949ZM2.04393 38.357C1.98621 39.6355 2.00255 40.9091 2.09564 42.174L0.0903241 42.3216C-0.00876089 40.9753 -0.0259734 39.6221 0.0352369 38.2663L2.04393 38.357ZM2.61036 45.9513C2.8591 47.1896 3.18674 48.4162 3.59621 49.6276L1.69136 50.2715C1.25416 48.9781 0.904416 47.6686 0.638998 46.3473L2.61036 45.9513ZM5.04229 53.1488C5.58929 54.273 6.2139 55.3808 6.91899 56.4688L5.23158 57.5623C4.4824 56.4062 3.81741 55.2271 3.23423 54.0286L5.04229 53.1488ZM9.18103 59.5526C9.97373 60.5146 10.8371 61.4578 11.7735 62.3793L10.3631 63.8124C9.3782 62.8432 8.46747 61.8486 7.6292 60.8312L9.18103 59.5526ZM14.639 64.9421C15.6062 65.7304 16.6342 66.4992 17.7247 67.2464L16.5881 68.9051C15.4532 68.1274 14.3805 67.3254 13.3687 66.5008L14.639 64.9421ZM20.9864 69.3061C22.0694 69.9367 23.2037 70.5485 24.3905 71.1399L23.4936 72.9396C22.2692 72.3294 21.0965 71.697 19.9746 71.0438L20.9864 69.3061ZM27.9139 72.7684C29.0794 73.2676 30.2887 73.749 31.5428 74.2114L30.8471 76.098C29.5618 75.624 28.3204 75.1299 27.1222 74.6167L27.9139 72.7684ZM35.229 75.474C36.4302 75.8556 37.6679 76.2211 38.9427 76.5697L38.4124 78.5092C37.112 78.1537 35.8481 77.7805 34.6202 77.3904L35.229 75.474ZM42.7356 77.5305C43.9815 77.8221 45.2595 78.0986 46.5702 78.3594L46.1778 80.3314C44.8457 80.0664 43.5457 79.7852 42.2774 79.4883L42.7356 77.5305ZM50.3836 79.0576C51.6556 79.2711 52.956 79.4705 54.2852 79.6555L54.008 81.647C52.6608 81.4596 51.3418 81.2573 50.0509 81.0406L50.3836 79.0576ZM58.137 80.1414C59.4152 80.2864 60.7181 80.4188 62.046 80.5379L61.8663 82.5406C60.523 82.4201 59.2044 82.2862 57.9102 82.1393L58.137 80.1414ZM65.9448 80.8448C66.6062 80.8898 67.2735 80.9316 67.9467 80.9703L67.8314 82.9777C67.1513 82.9387 66.4769 82.8964 65.8084 82.8509L65.9448 80.8448Z" fill="black"/>
</svg>
