<svg width="69" height="64" viewBox="0 0 69 64" fill="none" xmlns="http://www.w3.org/2000/svg">
<g filter="url(#filter0_d_726_1698)">
<mask id="path-1-inside-1_726_1698" fill="white">
<path fill-rule="evenodd" clip-rule="evenodd" d="M34.5003 55.9304C51.3437 55.9304 64.998 43.4099 64.998 27.9652C64.998 12.5204 51.3437 0 34.5003 0C17.6569 0 4.00261 12.5204 4.00261 27.9652C4.00261 34.0194 6.10067 39.6242 9.66648 44.2018L4.97317 53.4807C4.22552 54.9588 6.03571 56.4373 7.83861 55.821L18.9453 52.0245C23.4996 54.5056 28.8185 55.9304 34.5003 55.9304Z"/>
</mask>
<path fill-rule="evenodd" clip-rule="evenodd" d="M34.5003 55.9304C51.3437 55.9304 64.998 43.4099 64.998 27.9652C64.998 12.5204 51.3437 0 34.5003 0C17.6569 0 4.00261 12.5204 4.00261 27.9652C4.00261 34.0194 6.10067 39.6242 9.66648 44.2018L4.97317 53.4807C4.22552 54.9588 6.03571 56.4373 7.83861 55.821L18.9453 52.0245C23.4996 54.5056 28.8185 55.9304 34.5003 55.9304Z" fill="black"/>
<path d="M9.66648 44.2018L10.5594 44.6534L10.8457 44.0873L10.4559 43.5868L9.66648 44.2018ZM4.97317 53.4807L4.08024 53.029H4.08024L4.97317 53.4807ZM7.83861 55.821L7.51496 54.8741L7.83861 55.821ZM18.9453 52.0245L19.424 51.1458L19.0378 50.9354L18.6216 51.0777L18.9453 52.0245ZM63.9974 27.9652C63.9974 42.7774 50.8745 54.9297 34.5003 54.9297V56.931C51.813 56.931 65.9987 44.0425 65.9987 27.9652H63.9974ZM34.5003 1.00065C50.8745 1.00065 63.9974 13.153 63.9974 27.9652H65.9987C65.9987 11.8879 51.813 -1.00065 34.5003 -1.00065V1.00065ZM5.00326 27.9652C5.00326 13.153 18.1261 1.00065 34.5003 1.00065V-1.00065C17.1877 -1.00065 3.00195 11.8879 3.00195 27.9652H5.00326ZM10.4559 43.5868C7.01769 39.1731 5.00326 33.7819 5.00326 27.9652H3.00195C3.00195 34.2568 5.18366 40.0753 8.87707 44.8167L10.4559 43.5868ZM5.8661 53.9323L10.5594 44.6534L8.77355 43.7501L4.08024 53.029L5.8661 53.9323ZM7.51496 54.8741C6.9444 55.0692 6.40217 54.9224 6.08241 54.6612C5.77957 54.4139 5.74879 54.1642 5.8661 53.9323L4.08024 53.029C3.44989 54.2753 3.95039 55.5039 4.81645 56.2113C5.66561 56.9048 6.92992 57.1891 8.16227 56.7679L7.51496 54.8741ZM18.6216 51.0777L7.51496 54.8741L8.16227 56.7679L19.2689 52.9714L18.6216 51.0777ZM34.5003 54.9297C28.9866 54.9297 23.8322 53.5473 19.424 51.1458L18.4666 52.9032C23.167 55.464 28.6504 56.931 34.5003 56.931V54.9297Z" fill="black" style="mix-blend-mode:overlay" mask="url(#path-1-inside-1_726_1698)"/>
</g>
<defs>
<filter id="filter0_d_726_1698" x="0" y="0" width="69" height="63.9696" filterUnits="userSpaceOnUse" color-interpolation-filters="sRGB">
<feFlood flood-opacity="0" result="BackgroundImageFix"/>
<feColorMatrix in="SourceAlpha" type="matrix" values="0 0 0 0 0 0 0 0 0 0 0 0 0 0 0 0 0 0 127 0" result="hardAlpha"/>
<feOffset dy="4"/>
<feGaussianBlur stdDeviation="2"/>
<feComposite in2="hardAlpha" operator="out"/>
<feColorMatrix type="matrix" values="0 0 0 0 0 0 0 0 0 0 0 0 0 0 0 0 0 0 0.25 0"/>
<feBlend mode="normal" in2="BackgroundImageFix" result="effect1_dropShadow_726_1698"/>
<feBlend mode="normal" in="SourceGraphic" in2="effect1_dropShadow_726_1698" result="shape"/>
</filter>
</defs>
</svg>
