<svg width="102" height="110" viewBox="0 0 102 110" fill="none" xmlns="http://www.w3.org/2000/svg">
<path d="M41.4516 6.9797C44.4159 -2.32653 57.5841 -2.3265 60.5484 6.97971L64.7685 20.2283C66.3452 25.1785 71.4437 28.1028 76.5127 26.9644L89.738 23.9942C99.7302 21.7502 106.257 34.1707 98.7405 41.1266L92.057 47.3118C87.771 51.2784 87.771 58.0549 92.057 62.0215L98.7404 68.2067C106.257 75.1626 99.7301 87.5832 89.738 85.3391L76.5127 82.3689C71.4437 81.2305 66.3452 84.1548 64.7684 89.1051L60.5484 102.354C57.5841 111.66 44.4159 111.66 41.4516 102.354L37.2315 89.105C35.6548 84.1548 30.5563 81.2305 25.4873 82.3689L12.262 85.3391C2.26986 87.5832 -4.25666 75.1627 3.25954 68.2067L9.94299 62.0215C14.229 58.0549 14.229 51.2784 9.94299 47.3118L3.25955 41.1266C-4.25665 34.1707 2.26985 21.7502 12.262 23.9942L25.4873 26.9644C30.5563 28.1028 35.6548 25.1785 37.2316 20.2283L41.4516 6.9797Z" fill="#FFBF08" fill-opacity="0.9"/>
</svg>
