<svg width="536" height="536" viewBox="0 0 536 536" fill="none" xmlns="http://www.w3.org/2000/svg">
<path d="M200.999 357.333C157.449 357.333 120.51 342.169 90.1814 311.84C59.8527 281.512 44.6809 244.565 44.666 201C44.6511 157.435 59.8229 120.496 90.1814 90.1819C120.54 59.8681 157.479 44.6963 200.999 44.6665C244.52 44.6368 281.466 59.8085 311.84 90.1819C342.213 120.555 357.377 157.495 357.333 201C357.288 244.505 342.124 281.452 311.84 311.84C281.556 342.228 244.609 357.393 200.999 357.333ZM178.666 446.667V400.883C182.388 401.255 186.11 401.538 189.833 401.732C193.555 401.925 197.277 402.015 200.999 402C256.833 402 304.291 382.458 343.374 343.375C382.458 304.292 401.999 256.833 401.999 201C401.999 197.278 401.91 193.555 401.731 189.833C401.553 186.111 401.27 182.389 400.883 178.667H446.666C458.949 178.667 469.468 183.044 478.223 191.799C486.978 200.553 491.348 211.065 491.333 223.333V446.667C491.333 458.95 486.963 469.469 478.223 478.224C469.483 486.978 458.964 491.348 446.666 491.333H223.333C211.049 491.333 200.538 486.963 191.798 478.224C183.058 469.484 178.681 458.965 178.666 446.667Z" fill="#FFEDBA"/>
</svg>
