<svg width="70" height="86" viewBox="0 0 70 86" fill="none" xmlns="http://www.w3.org/2000/svg">
<path d="M54.3169 85.121C54.5004 85.645 55.074 85.921 55.5979 85.7374L64.1367 82.7463C64.6607 82.5628 64.9366 81.9892 64.7531 81.4652C64.5695 80.9413 63.996 80.6653 63.472 80.8488L55.882 83.5076L53.2233 75.9176C53.0397 75.3936 52.4662 75.1176 51.9422 75.3012C51.4182 75.4847 51.1422 76.0583 51.3258 76.5823L54.3169 85.121ZM0.958426 11.282C1.53621 10.9688 2.11565 10.6631 2.69648 10.3649L1.77829 8.57626C1.18401 8.88133 0.591232 9.1941 0.000215385 9.5145L0.958426 11.282ZM6.21695 8.6576C7.41202 8.11151 8.61064 7.5975 9.81059 7.11608L9.06197 5.25011C7.83245 5.74339 6.60483 6.26985 5.38134 6.82892L6.21695 8.6576ZM13.4717 5.74957C14.7143 5.32032 15.9559 4.92661 17.194 4.56898L16.636 2.63741C15.3643 3.00476 14.0899 3.4089 12.8152 3.84919L13.4717 5.74957ZM20.9706 3.5874C22.2525 3.2916 23.5277 3.03576 24.7933 2.82048L24.4562 0.838403C23.1511 1.0604 21.8376 1.32397 20.5186 1.62833L20.9706 3.5874ZM28.6518 2.28697C29.9604 2.14851 31.2549 2.05569 32.5323 2.00914L32.4591 -7.01793e-05C31.134 0.0482213 29.7932 0.144426 28.4402 0.287581L28.6518 2.28697ZM36.4166 2.01307C37.7288 2.06531 39.0177 2.1702 40.2796 2.3284L40.5297 0.333475C39.2091 0.167905 37.8633 0.058529 36.4966 0.00411224L36.4166 2.01307ZM44.0875 2.98743C45.3601 3.27186 46.5978 3.61672 47.7964 4.02274L48.4414 2.11849C47.1722 1.68853 45.8654 1.32464 44.5261 1.02529L44.0875 2.98743ZM51.3511 5.46332C52.5117 6.0176 53.6253 6.63913 54.6874 7.32887L55.7824 5.64271C54.6446 4.90373 53.4543 4.23972 52.2175 3.64906L51.3511 5.46332ZM57.7362 9.6227C58.6897 10.4509 59.5879 11.349 60.4261 12.3186L61.947 11.0037C61.0457 9.96106 60.0797 8.99514 59.0546 8.10479L57.7362 9.6227ZM62.7082 15.369C63.3836 16.4164 64.0021 17.5296 64.5593 18.7103L66.3775 17.8521C65.7833 16.5931 65.122 15.4024 64.3979 14.2794L62.7082 15.369ZM65.9814 22.2707C66.3742 23.451 66.7141 24.6877 66.9973 25.9819L68.9614 25.552C68.6635 24.1911 68.3051 22.8858 67.889 21.6357L65.9814 22.2707ZM67.6435 29.7874C67.7971 31.0279 67.9038 32.3141 67.9614 33.6468L69.97 33.5601C69.9103 32.1761 69.7993 30.8363 69.6388 29.5404L67.6435 29.7874ZM67.9908 37.536C67.9574 38.8013 67.8832 40.1037 67.7664 41.4438L69.7693 41.6184C69.8895 40.2395 69.9662 38.8964 70.0006 37.5889L67.9908 37.536ZM67.3217 45.3295C67.1463 46.5762 66.9365 47.8524 66.6911 49.1584L68.667 49.5298C68.918 48.1945 69.1328 46.8879 69.3127 45.6096L67.3217 45.3295ZM65.8858 52.9976C65.5966 54.2502 65.2764 55.5281 64.9244 56.8315L66.8654 57.3557C67.2237 56.0292 67.5499 54.7273 67.8448 53.4499L65.8858 52.9976ZM63.8507 60.5614C63.4739 61.7962 63.0698 63.0524 62.6378 64.3302L64.5424 64.9741C64.9806 63.678 65.3909 62.4027 65.7737 61.1483L63.8507 60.5614ZM61.3362 68.0146C60.8914 69.223 60.4227 70.4496 59.9295 71.6945L61.7987 72.435C62.2978 71.1753 62.7724 69.9333 63.223 68.7091L61.3362 68.0146ZM58.4382 75.3374C57.9372 76.5236 57.4149 77.7256 56.8707 78.9435L58.7064 79.7637C59.256 78.5335 59.7839 77.3188 60.2903 76.1196L58.4382 75.3374ZM55.2278 82.5273C54.9437 83.132 54.6543 83.7405 54.3597 84.3528L56.1715 85.2245C56.4687 84.6068 56.7607 83.9927 57.0475 83.3823L55.2278 82.5273ZM54.3169 85.121C54.5004 85.645 55.074 85.921 55.5979 85.7374L64.1367 82.7463C64.6607 82.5628 64.9366 81.9892 64.7531 81.4652C64.5695 80.9413 63.996 80.6653 63.472 80.8488L55.882 83.5076L53.2233 75.9176C53.0397 75.3936 52.4662 75.1176 51.9422 75.3012C51.4182 75.4847 51.1422 76.0583 51.3258 76.5823L54.3169 85.121ZM0.958426 11.282C1.53621 10.9688 2.11565 10.6631 2.69648 10.3649L1.77829 8.57626C1.18401 8.88133 0.591232 9.1941 0.000215385 9.5145L0.958426 11.282ZM6.21695 8.6576C7.41202 8.11151 8.61064 7.5975 9.81059 7.11608L9.06197 5.25011C7.83245 5.74339 6.60483 6.26985 5.38134 6.82892L6.21695 8.6576ZM13.4717 5.74957C14.7143 5.32032 15.9559 4.92661 17.194 4.56898L16.636 2.63741C15.3643 3.00476 14.0899 3.4089 12.8152 3.84919L13.4717 5.74957ZM20.9706 3.5874C22.2525 3.2916 23.5277 3.03576 24.7933 2.82048L24.4562 0.838403C23.1511 1.0604 21.8376 1.32397 20.5186 1.62833L20.9706 3.5874ZM28.6518 2.28697C29.9604 2.14851 31.2549 2.05569 32.5323 2.00914L32.4591 -7.01793e-05C31.134 0.0482213 29.7932 0.144426 28.4402 0.287581L28.6518 2.28697ZM36.4166 2.01307C37.7288 2.06531 39.0177 2.1702 40.2796 2.3284L40.5297 0.333475C39.2091 0.167905 37.8633 0.058529 36.4966 0.00411224L36.4166 2.01307ZM44.0875 2.98743C45.3601 3.27186 46.5978 3.61672 47.7964 4.02274L48.4414 2.11849C47.1722 1.68853 45.8654 1.32464 44.5261 1.02529L44.0875 2.98743ZM51.3511 5.46332C52.5117 6.0176 53.6253 6.63913 54.6874 7.32887L55.7824 5.64271C54.6446 4.90373 53.4543 4.23972 52.2175 3.64906L51.3511 5.46332ZM57.7362 9.6227C58.6897 10.4509 59.5879 11.349 60.4261 12.3186L61.947 11.0037C61.0457 9.96106 60.0797 8.99514 59.0546 8.10479L57.7362 9.6227ZM62.7082 15.369C63.3836 16.4164 64.0021 17.5296 64.5593 18.7103L66.3775 17.8521C65.7833 16.5931 65.122 15.4024 64.3979 14.2794L62.7082 15.369ZM65.9814 22.2707C66.3742 23.451 66.7141 24.6877 66.9973 25.9819L68.9614 25.552C68.6635 24.1911 68.3051 22.8858 67.889 21.6357L65.9814 22.2707ZM67.6435 29.7874C67.7971 31.0279 67.9038 32.3141 67.9614 33.6468L69.97 33.5601C69.9103 32.1761 69.7993 30.8363 69.6388 29.5404L67.6435 29.7874ZM67.9908 37.536C67.9574 38.8013 67.8832 40.1037 67.7664 41.4438L69.7693 41.6184C69.8895 40.2395 69.9662 38.8964 70.0006 37.5889L67.9908 37.536ZM67.3217 45.3295C67.1463 46.5762 66.9365 47.8524 66.6911 49.1584L68.667 49.5298C68.918 48.1945 69.1328 46.8879 69.3127 45.6096L67.3217 45.3295ZM65.8858 52.9976C65.5966 54.2502 65.2764 55.5281 64.9244 56.8315L66.8654 57.3557C67.2237 56.0292 67.5499 54.7273 67.8448 53.4499L65.8858 52.9976ZM63.8507 60.5614C63.4739 61.7962 63.0698 63.0524 62.6378 64.3302L64.5424 64.9741C64.9806 63.678 65.3909 62.4027 65.7737 61.1483L63.8507 60.5614ZM61.3362 68.0146C60.8914 69.223 60.4227 70.4496 59.9295 71.6945L61.7987 72.435C62.2978 71.1753 62.7724 69.9333 63.223 68.7091L61.3362 68.0146ZM58.4382 75.3374C57.9372 76.5236 57.4149 77.7256 56.8707 78.9435L58.7064 79.7637C59.256 78.5335 59.7839 77.3188 60.2903 76.1196L58.4382 75.3374ZM55.2278 82.5273C54.9437 83.132 54.6543 83.7405 54.3597 84.3528L56.1715 85.2245C56.4687 84.6068 56.7607 83.9927 57.0475 83.3823L55.2278 82.5273Z" fill="black"/>
</svg>
