<svg width="20" height="20" viewBox="0 0 20 20" fill="none" xmlns="http://www.w3.org/2000/svg">
<path d="M3.23968 0.572266C1.74258 0.572266 0.525391 1.80547 0.525391 3.32227V17.0723C0.525391 18.5891 1.74258 19.8223 3.23968 19.8223H16.8111C18.3082 19.8223 19.5254 18.5891 19.5254 17.0723V3.32227C19.5254 1.80547 18.3082 0.572266 16.8111 0.572266H3.23968ZM14.3428 5.2L14.9535 5.81875C15.6151 6.48906 15.6151 7.57617 14.9535 8.25078L14.0459 9.17031L11.0348 6.11953L11.9424 5.2C12.604 4.52969 13.677 4.52969 14.3428 5.2ZM5.61044 11.6152L10.072 7.09492L13.0832 10.1457L8.6216 14.6617C8.44771 14.8379 8.23142 14.9625 7.98968 15.0227L5.44079 15.6672C5.20753 15.7273 4.96579 15.6586 4.79615 15.4867C4.62651 15.3148 4.55865 15.0699 4.61802 14.8336L5.25419 12.2512C5.31356 12.0105 5.43655 11.7871 5.61044 11.6109V11.6152Z" fill="#4255FF"/>
</svg>
