<svg width="20" height="23" viewBox="0 0 20 23" fill="none" xmlns="http://www.w3.org/2000/svg">
<path d="M3.28571 0C1.47344 0 0 1.47344 0 3.28571V19.7143C0 21.5266 1.47344 23 3.28571 23H19.7143C21.5266 23 23 21.5266 23 19.7143V3.28571C23 1.47344 21.5266 0 19.7143 0H3.28571ZM16.7263 5.52924L17.4656 6.26853C18.2665 7.06942 18.2665 8.3683 17.4656 9.17433L16.367 10.273L12.7219 6.6279L13.8205 5.52924C14.6214 4.72835 15.9203 4.72835 16.7263 5.52924ZM6.15558 13.1942L11.5565 7.7933L15.2016 11.4384L9.80067 16.8342C9.59018 17.0446 9.32835 17.1935 9.03571 17.2654L5.95022 18.0355C5.66786 18.1074 5.37522 18.0252 5.16987 17.8199C4.96451 17.6145 4.88237 17.3219 4.95424 17.0395L5.72433 13.954C5.79621 13.6665 5.94509 13.3996 6.15558 13.1891V13.1942Z" fill="white"/>
<path d="M6.15558 13.1942L11.5565 7.7933L15.2016 11.4384L9.80067 16.8342C9.59018 17.0446 9.32835 17.1935 9.03571 17.2654L5.95022 18.0355C5.66786 18.1074 5.37522 18.0252 5.16987 17.8199C4.96451 17.6145 4.88237 17.3219 4.95424 17.0395L5.72433 13.954C5.79621 13.6665 5.94509 13.3996 6.15558 13.1891V13.1942Z" fill="#BE707C"/>
<path d="M16.7263 5.52924L17.4656 6.26853C18.2665 7.06942 18.2665 8.3683 17.4656 9.17433L16.367 10.273L12.7219 6.6279L13.8205 5.52924C14.6214 4.72835 15.9203 4.72835 16.7263 5.52924Z" fill="black"/>
</svg>
