<svg width="530" height="530" viewBox="0 0 530 530" fill="none" xmlns="http://www.w3.org/2000/svg">
<path d="M57.133 189.034C57.0665 150.891 71.6244 114.174 97.8105 86.4396C123.996 58.7054 159.818 42.0646 197.902 39.9425C235.986 37.8203 273.435 50.3783 302.54 75.0315C331.645 99.6848 350.192 134.557 354.364 172.472H305.571C274.822 172.472 245.333 184.687 223.59 206.429C201.848 228.172 189.633 257.661 189.633 288.409V337.202C153.189 333.128 119.526 315.762 95.0814 288.427C70.6367 261.092 57.126 225.705 57.133 189.034ZM305.571 205.597C283.607 205.597 262.544 214.322 247.013 229.852C231.483 245.382 222.758 266.446 222.758 288.409V420.909C222.758 442.872 231.483 463.936 247.013 479.467C262.544 494.997 283.607 503.722 305.571 503.722H438.071C460.034 503.722 481.097 494.997 496.628 479.467C512.158 463.936 520.883 442.872 520.883 420.909V288.409C520.883 266.446 512.158 245.382 496.628 229.852C481.097 214.322 460.034 205.597 438.071 205.597H305.571Z" fill="#FFEDBA"/>
<rect x="270" y="316" width="14" height="4" fill="#D9D9D9"/>
<line x1="275" y1="315.5" x2="286" y2="315.5" stroke="black"/>
</svg>
